<?xml version="1.0" ?>
<!DOCTYPE svg  PUBLIC '-//W3C//DTD SVG 1.1//EN'  'http://www.w3.org/Graphics/SVG/1.1/DTD/svg11.dtd'>
<!-- Uploaded to: SVG Repo, www.svgrepo.com, Generator: SVG Repo Mixer Tools -->
<svg fill="#000000" width="800px" height="800px" viewBox="0 -2.5 28 28" style="fill-rule:evenodd;clip-rule:evenodd;stroke-linejoin:round;stroke-miterlimit:2;" version="1.1" xml:space="preserve" xmlns="http://www.w3.org/2000/svg" xmlns:serif="http://www.serif.com/" xmlns:xlink="http://www.w3.org/1999/xlink">
<g transform="matrix(1,0,0,1,-85,-10)">
<g id="Blockchain-digital-future-system-security-crypto-sign-symbol">
<g transform="matrix(1,0,0,1,0,-95)">
<rect height="1" width="1" x="106" y="127"/>
</g>
<g transform="matrix(1,0,0,1,0,-95)">
<rect height="1" width="1" x="105" y="127"/>
</g>
<g transform="matrix(1,0,0,1,0,-95)">
<rect height="1" width="1" x="104" y="127"/>
</g>
<g transform="matrix(1,0,0,1,0,-95)">
<rect height="1" width="1.001" x="103" y="127"/>
</g>
<g transform="matrix(1,0,0,1,0,-95)">
<rect height="1" width="1" x="102" y="127"/>
</g>
<g transform="matrix(1,0,0,1,0,-95)">
<rect height="1" width="1" x="101" y="127"/>
</g>
<g transform="matrix(1,0,0,1,0,-95)">
<rect height="1" width="1" x="100" y="127"/>
</g>
<g transform="matrix(1,0,0,1,0,-95)">
<rect height="1" width="1" x="99" y="127"/>
</g>
<g transform="matrix(1,0,0,1,0,-95)">
<rect height="1" width="1" x="98" y="127"/>
</g>
<g transform="matrix(1,0,0,1,0,-95)">
<rect height="1" width="1" x="97" y="127"/>
</g>
<g transform="matrix(1,0,0,1,0,-95)">
<rect height="1" width="1" x="96" y="127"/>
</g>
<g transform="matrix(1,0,0,1,0,-95)">
<rect height="1" width="1" x="95" y="127"/>
</g>
<g transform="matrix(1,0,0,1,0,-95)">
<rect height="1" width="1.001" x="94" y="127"/>
</g>
<g transform="matrix(1,0,0,1,0,-95)">
<rect height="1" width="1" x="93" y="127"/>
</g>
<g transform="matrix(1,0,0,1,0,-95)">
<rect height="1" width="1" x="92" y="127"/>
</g>
<g transform="matrix(1,0,0,1,0,-95)">
<rect height="1" width="1" x="91" y="127"/>
</g>
<g transform="matrix(1,0,0,1,0,-95)">
<rect height="1" width="1" x="90" y="127"/>
</g>
<g transform="matrix(1,0,0,1,0,-97)">
<rect height="1" width="1" x="107" y="128"/>
</g>
<g transform="matrix(1,0,0,1,0,-97)">
<rect height="1" style="fill:rgb(91,110,225);" width="1" x="106" y="128"/>
</g>
<g transform="matrix(1,0,0,1,0,-97)">
<rect height="1" style="fill:rgb(91,110,225);" width="1" x="105" y="128"/>
</g>
<g transform="matrix(1,0,0,1,0,-97)">
<rect height="1" style="fill:rgb(99,155,255);" width="1" x="104" y="128"/>
</g>
<g transform="matrix(1,0,0,1,0,-97)">
<rect height="1" style="fill:rgb(99,155,255);" width="1.001" x="103" y="128"/>
</g>
<g transform="matrix(1,0,0,1,0,-97)">
<rect height="1" style="fill:rgb(99,155,255);" width="1" x="102" y="128"/>
</g>
<g transform="matrix(1,0,0,1,0,-97)">
<rect height="1" style="fill:rgb(99,155,255);" width="1" x="101" y="128"/>
</g>
<g transform="matrix(1,0,0,1,0,-97)">
<rect height="1" style="fill:rgb(99,155,255);" width="1" x="100" y="128"/>
</g>
<g transform="matrix(1,0,0,1,0,-97)">
<rect height="1" style="fill:rgb(99,155,255);" width="1" x="99" y="128"/>
</g>
<g transform="matrix(1,0,0,1,0,-97)">
<rect height="1" style="fill:rgb(99,155,255);" width="1" x="98" y="128"/>
</g>
<g transform="matrix(1,0,0,1,0,-97)">
<rect height="1" style="fill:rgb(99,155,255);" width="1" x="97" y="128"/>
</g>
<g transform="matrix(1,0,0,1,0,-97)">
<rect height="1" style="fill:rgb(99,155,255);" width="1" x="96" y="128"/>
</g>
<g transform="matrix(1,0,0,1,0,-97)">
<rect height="1" style="fill:rgb(99,155,255);" width="1" x="95" y="128"/>
</g>
<g transform="matrix(1,0,0,1,0,-97)">
<rect height="1" style="fill:rgb(99,155,255);" width="1.001" x="94" y="128"/>
</g>
<g transform="matrix(1,0,0,1,0,-97)">
<rect height="1" style="fill:rgb(99,155,255);" width="1" x="93" y="128"/>
</g>
<g transform="matrix(1,0,0,1,0,-97)">
<rect height="1" style="fill:rgb(99,155,255);" width="1" x="92" y="128"/>
</g>
<g transform="matrix(1,0,0,1,0,-97)">
<rect height="1" style="fill:rgb(99,155,255);" width="1" x="91" y="128"/>
</g>
<g transform="matrix(1,0,0,1,0,-97)">
<rect height="1" style="fill:rgb(91,110,225);" width="1" x="90" y="128"/>
</g>
<g transform="matrix(1,0,0,1,0,-97)">
<rect height="1" width="1" x="89" y="128"/>
</g>
<g transform="matrix(1,0,0,1,0,-99)">
<rect height="1" width="1" x="108" y="129"/>
</g>
<g transform="matrix(1,0,0,1,0,-99)">
<rect height="1" style="fill:rgb(91,110,225);" width="1" x="107" y="129"/>
</g>
<g transform="matrix(1,0,0,1,0,-99)">
<rect height="1" style="fill:rgb(91,110,225);" width="1" x="106" y="129"/>
</g>
<g transform="matrix(1,0,0,1,0,-99)">
<rect height="1" style="fill:rgb(99,155,255);" width="1" x="105" y="129"/>
</g>
<g transform="matrix(1,0,0,1,0,-99)">
<rect height="1" style="fill:rgb(99,155,255);" width="1" x="104" y="129"/>
</g>
<g transform="matrix(1,0,0,1,0,-99)">
<rect height="1" style="fill:rgb(99,155,255);" width="1.001" x="103" y="129"/>
</g>
<g transform="matrix(1,0,0,1,0,-99)">
<rect height="1" style="fill:rgb(99,155,255);" width="1" x="102" y="129"/>
</g>
<g transform="matrix(1,0,0,1,0,-99)">
<rect height="1" style="fill:rgb(99,155,255);" width="1" x="101" y="129"/>
</g>
<g transform="matrix(1,0,0,1,0,-99)">
<rect height="1" style="fill:rgb(99,155,255);" width="1" x="100" y="129"/>
</g>
<g transform="matrix(1,0,0,1,0,-99)">
<rect height="1" style="fill:rgb(99,155,255);" width="1" x="99" y="129"/>
</g>
<g transform="matrix(1,0,0,1,0,-99)">
<rect height="1" style="fill:rgb(99,155,255);" width="1" x="98" y="129"/>
</g>
<g transform="matrix(1,0,0,1,0,-99)">
<rect height="1" style="fill:rgb(99,155,255);" width="1" x="97" y="129"/>
</g>
<g transform="matrix(1,0,0,1,0,-99)">
<rect height="1" style="fill:rgb(99,155,255);" width="1" x="96" y="129"/>
</g>
<g transform="matrix(1,0,0,1,0,-99)">
<rect height="1" style="fill:rgb(99,155,255);" width="1" x="95" y="129"/>
</g>
<g transform="matrix(1,0,0,1,0,-99)">
<rect height="1" style="fill:rgb(99,155,255);" width="1.001" x="94" y="129"/>
</g>
<g transform="matrix(1,0,0,1,0,-99)">
<rect height="1" style="fill:rgb(99,155,255);" width="1" x="93" y="129"/>
</g>
<g transform="matrix(1,0,0,1,0,-99)">
<rect height="1" style="fill:rgb(99,155,255);" width="1" x="92" y="129"/>
</g>
<g transform="matrix(1,0,0,1,0,-99)">
<rect height="1" style="fill:rgb(99,155,255);" width="1" x="91" y="129"/>
</g>
<g transform="matrix(1,0,0,1,0,-99)">
<rect height="1" style="fill:rgb(99,155,255);" width="1" x="90" y="129"/>
</g>
<g transform="matrix(1,0,0,1,0,-99)">
<rect height="1" width="1" x="89" y="129"/>
</g>
<g transform="matrix(1,0,0,1,0,-101.001)">
<rect height="1.001" width="1" x="109" y="130"/>
</g>
<g transform="matrix(1,0,0,1,0,-101.001)">
<rect height="1.001" style="fill:rgb(91,110,225);" width="1" x="108" y="130"/>
</g>
<g transform="matrix(1,0,0,1,0,-101.001)">
<rect height="1.001" style="fill:rgb(91,110,225);" width="1" x="107" y="130"/>
</g>
<g transform="matrix(1,0,0,1,0,-101.001)">
<rect height="1.001" style="fill:white;" width="1" x="106" y="130"/>
</g>
<g transform="matrix(1,0,0,1,0,-101.001)">
<rect height="1.001" style="fill:rgb(99,155,255);" width="1" x="105" y="130"/>
</g>
<g transform="matrix(1,0,0,1,0,-101.001)">
<rect height="1.001" style="fill:white;" width="1" x="104" y="130"/>
</g>
<g transform="matrix(1,0,0,1,0,-101.001)">
<rect height="1.001" style="fill:rgb(99,155,255);" width="1.001" x="103" y="130"/>
</g>
<g transform="matrix(1,0,0,1,0,-101.001)">
<rect height="1.001" style="fill:white;" width="1" x="102" y="130"/>
</g>
<g transform="matrix(1,0,0,1,0,-101.001)">
<rect height="1.001" style="fill:rgb(99,155,255);" width="1" x="101" y="130"/>
</g>
<g transform="matrix(1,0,0,1,0,-101.001)">
<rect height="1.001" style="fill:white;" width="1" x="100" y="130"/>
</g>
<g transform="matrix(1,0,0,1,0,-101.001)">
<rect height="1.001" style="fill:rgb(99,155,255);" width="1" x="99" y="130"/>
</g>
<g transform="matrix(1,0,0,1,0,-101.001)">
<rect height="1.001" style="fill:white;" width="1" x="98" y="130"/>
</g>
<g transform="matrix(1,0,0,1,0,-101.001)">
<rect height="1.001" style="fill:rgb(99,155,255);" width="1" x="97" y="130"/>
</g>
<g transform="matrix(1,0,0,1,0,-101.001)">
<rect height="1.001" style="fill:white;" width="1" x="96" y="130"/>
</g>
<g transform="matrix(1,0,0,1,0,-101.001)">
<rect height="1.001" style="fill:rgb(99,155,255);" width="1" x="95" y="130"/>
</g>
<g transform="matrix(1,0,0,1,0,-101.001)">
<rect height="1.001" style="fill:white;" width="1.001" x="94" y="130"/>
</g>
<g transform="matrix(1,0,0,1,0,-101.001)">
<rect height="1.001" style="fill:rgb(99,155,255);" width="1" x="93" y="130"/>
</g>
<g transform="matrix(1,0,0,1,0,-101.001)">
<rect height="1.001" style="fill:white;" width="1" x="92" y="130"/>
</g>
<g transform="matrix(1,0,0,1,0,-101.001)">
<rect height="1.001" style="fill:rgb(99,155,255);" width="1" x="91" y="130"/>
</g>
<g transform="matrix(1,0,0,1,0,-101.001)">
<rect height="1.001" style="fill:rgb(99,155,255);" width="1" x="90" y="130"/>
</g>
<g transform="matrix(1,0,0,1,0,-101.001)">
<rect height="1.001" width="1" x="89" y="130"/>
</g>
<g transform="matrix(1,0,0,1,0,-103)">
<rect height="1" width="1" x="109" y="131"/>
</g>
<g transform="matrix(1,0,0,1,0,-103)">
<rect height="1" style="fill:rgb(91,110,225);" width="1" x="108" y="131"/>
</g>
<g transform="matrix(1,0,0,1,0,-103)">
<rect height="1" style="fill:rgb(91,110,225);" width="1" x="107" y="131"/>
</g>
<g transform="matrix(1,0,0,1,0,-103)">
<rect height="1" style="fill:white;" width="1" x="106" y="131"/>
</g>
<g transform="matrix(1,0,0,1,0,-103)">
<rect height="1" style="fill:rgb(99,155,255);" width="1" x="105" y="131"/>
</g>
<g transform="matrix(1,0,0,1,0,-103)">
<rect height="1" style="fill:white;" width="1" x="104" y="131"/>
</g>
<g transform="matrix(1,0,0,1,0,-103)">
<rect height="1" style="fill:rgb(99,155,255);" width="1.001" x="103" y="131"/>
</g>
<g transform="matrix(1,0,0,1,0,-103)">
<rect height="1" style="fill:white;" width="1" x="102" y="131"/>
</g>
<g transform="matrix(1,0,0,1,0,-103)">
<rect height="1" style="fill:rgb(99,155,255);" width="1" x="101" y="131"/>
</g>
<g transform="matrix(1,0,0,1,0,-103)">
<rect height="1" style="fill:white;" width="1" x="100" y="131"/>
</g>
<g transform="matrix(1,0,0,1,0,-103)">
<rect height="1" style="fill:white;" width="1" x="99" y="131"/>
</g>
<g transform="matrix(1,0,0,1,0,-103)">
<rect height="1" style="fill:white;" width="1" x="98" y="131"/>
</g>
<g transform="matrix(1,0,0,1,0,-103)">
<rect height="1" style="fill:rgb(99,155,255);" width="1" x="97" y="131"/>
</g>
<g transform="matrix(1,0,0,1,0,-103)">
<rect height="1" style="fill:white;" width="1" x="96" y="131"/>
</g>
<g transform="matrix(1,0,0,1,0,-103)">
<rect height="1" style="fill:rgb(99,155,255);" width="1" x="95" y="131"/>
</g>
<g transform="matrix(1,0,0,1,0,-103)">
<rect height="1" style="fill:white;" width="1.001" x="94" y="131"/>
</g>
<g transform="matrix(1,0,0,1,0,-103)">
<rect height="1" style="fill:rgb(99,155,255);" width="1" x="93" y="131"/>
</g>
<g transform="matrix(1,0,0,1,0,-103)">
<rect height="1" style="fill:rgb(99,155,255);" width="1" x="92" y="131"/>
</g>
<g transform="matrix(1,0,0,1,0,-103)">
<rect height="1" style="fill:white;" width="1" x="91" y="131"/>
</g>
<g transform="matrix(1,0,0,1,0,-103)">
<rect height="1" style="fill:rgb(99,155,255);" width="1" x="90" y="131"/>
</g>
<g transform="matrix(1,0,0,1,0,-103)">
<rect height="1" width="1" x="89" y="131"/>
</g>
<g transform="matrix(1,0,0,1,0,-105)">
<rect height="1" width="1" x="109" y="132"/>
</g>
<g transform="matrix(1,0,0,1,0,-105)">
<rect height="1" style="fill:rgb(91,110,225);" width="1" x="108" y="132"/>
</g>
<g transform="matrix(1,0,0,1,0,-105)">
<rect height="1" style="fill:rgb(91,110,225);" width="1" x="107" y="132"/>
</g>
<g transform="matrix(1,0,0,1,0,-105)">
<rect height="1" style="fill:white;" width="1" x="106" y="132"/>
</g>
<g transform="matrix(1,0,0,1,0,-105)">
<rect height="1" style="fill:rgb(99,155,255);" width="1" x="105" y="132"/>
</g>
<g transform="matrix(1,0,0,1,0,-105)">
<rect height="1" style="fill:white;" width="1" x="104" y="132"/>
</g>
<g transform="matrix(1,0,0,1,0,-105)">
<rect height="1" style="fill:rgb(99,155,255);" width="1.001" x="103" y="132"/>
</g>
<g transform="matrix(1,0,0,1,0,-105)">
<rect height="1" style="fill:white;" width="1" x="102" y="132"/>
</g>
<g transform="matrix(1,0,0,1,0,-105)">
<rect height="1" style="fill:rgb(99,155,255);" width="1" x="101" y="132"/>
</g>
<g transform="matrix(1,0,0,1,0,-105)">
<rect height="1" style="fill:white;" width="1" x="100" y="132"/>
</g>
<g transform="matrix(1,0,0,1,0,-105)">
<rect height="1" style="fill:rgb(99,155,255);" width="1" x="99" y="132"/>
</g>
<g transform="matrix(1,0,0,1,0,-105)">
<rect height="1" style="fill:white;" width="1" x="98" y="132"/>
</g>
<g transform="matrix(1,0,0,1,0,-105)">
<rect height="1" style="fill:rgb(99,155,255);" width="1" x="97" y="132"/>
</g>
<g transform="matrix(1,0,0,1,0,-105)">
<rect height="1" style="fill:white;" width="1" x="96" y="132"/>
</g>
<g transform="matrix(1,0,0,1,0,-105)">
<rect height="1" style="fill:white;" width="1" x="95" y="132"/>
</g>
<g transform="matrix(1,0,0,1,0,-105)">
<rect height="1" style="fill:white;" width="1.001" x="94" y="132"/>
</g>
<g transform="matrix(1,0,0,1,0,-105)">
<rect height="1" style="fill:rgb(99,155,255);" width="1" x="93" y="132"/>
</g>
<g transform="matrix(1,0,0,1,0,-105)">
<rect height="1" style="fill:rgb(99,155,255);" width="1" x="92" y="132"/>
</g>
<g transform="matrix(1,0,0,1,0,-105)">
<rect height="1" style="fill:white;" width="1" x="91" y="132"/>
</g>
<g transform="matrix(1,0,0,1,0,-105)">
<rect height="1" style="fill:rgb(99,155,255);" width="1" x="90" y="132"/>
</g>
<g transform="matrix(1,0,0,1,0,-105)">
<rect height="1" width="1" x="89" y="132"/>
</g>
<g transform="matrix(1,0,0,1,0,-107)">
<rect height="1" width="1" x="109" y="133"/>
</g>
<g transform="matrix(1,0,0,1,0,-107)">
<rect height="1" style="fill:rgb(91,110,225);" width="1" x="108" y="133"/>
</g>
<g transform="matrix(1,0,0,1,0,-107)">
<rect height="1" style="fill:rgb(91,110,225);" width="1" x="107" y="133"/>
</g>
<g transform="matrix(1,0,0,1,0,-107)">
<rect height="1" style="fill:white;" width="1" x="106" y="133"/>
</g>
<g transform="matrix(1,0,0,1,0,-107)">
<rect height="1" style="fill:rgb(99,155,255);" width="1" x="105" y="133"/>
</g>
<g transform="matrix(1,0,0,1,0,-107)">
<rect height="1" style="fill:white;" width="1" x="104" y="133"/>
</g>
<g transform="matrix(1,0,0,1,0,-107)">
<rect height="1" style="fill:rgb(99,155,255);" width="1.001" x="103" y="133"/>
</g>
<g transform="matrix(1,0,0,1,0,-107)">
<rect height="1" style="fill:white;" width="1" x="102" y="133"/>
</g>
<g transform="matrix(1,0,0,1,0,-107)">
<rect height="1" style="fill:rgb(99,155,255);" width="1" x="101" y="133"/>
</g>
<g transform="matrix(1,0,0,1,0,-107)">
<rect height="1" style="fill:white;" width="1" x="100" y="133"/>
</g>
<g transform="matrix(1,0,0,1,0,-107)">
<rect height="1" style="fill:rgb(99,155,255);" width="1" x="99" y="133"/>
</g>
<g transform="matrix(1,0,0,1,0,-107)">
<rect height="1" style="fill:white;" width="1" x="98" y="133"/>
</g>
<g transform="matrix(1,0,0,1,0,-107)">
<rect height="1" style="fill:rgb(99,155,255);" width="1" x="97" y="133"/>
</g>
<g transform="matrix(1,0,0,1,0,-107)">
<rect height="1" style="fill:white;" width="1" x="96" y="133"/>
</g>
<g transform="matrix(1,0,0,1,0,-107)">
<rect height="1" style="fill:rgb(99,155,255);" width="1" x="95" y="133"/>
</g>
<g transform="matrix(1,0,0,1,0,-107)">
<rect height="1" style="fill:white;" width="1.001" x="94" y="133"/>
</g>
<g transform="matrix(1,0,0,1,0,-107)">
<rect height="1" style="fill:rgb(99,155,255);" width="1" x="93" y="133"/>
</g>
<g transform="matrix(1,0,0,1,0,-107)">
<rect height="1" style="fill:rgb(99,155,255);" width="1" x="92" y="133"/>
</g>
<g transform="matrix(1,0,0,1,0,-107)">
<rect height="1" style="fill:white;" width="1" x="91" y="133"/>
</g>
<g transform="matrix(1,0,0,1,0,-107)">
<rect height="1" style="fill:rgb(99,155,255);" width="1" x="90" y="133"/>
</g>
<g transform="matrix(1,0,0,1,0,-107)">
<rect height="1" width="1" x="89" y="133"/>
</g>
<g transform="matrix(1,0,0,1,0,-109)">
<rect height="1" width="1" x="109" y="134"/>
</g>
<g transform="matrix(1,0,0,1,0,-109)">
<rect height="1" style="fill:rgb(91,110,225);" width="1" x="108" y="134"/>
</g>
<g transform="matrix(1,0,0,1,0,-109)">
<rect height="1" style="fill:rgb(91,110,225);" width="1" x="107" y="134"/>
</g>
<g transform="matrix(1,0,0,1,0,-109)">
<rect height="1" style="fill:white;" width="1" x="106" y="134"/>
</g>
<g transform="matrix(1,0,0,1,0,-109)">
<rect height="1" style="fill:white;" width="1" x="105" y="134"/>
</g>
<g transform="matrix(1,0,0,1,0,-109)">
<rect height="1" style="fill:white;" width="1" x="104" y="134"/>
</g>
<g transform="matrix(1,0,0,1,0,-109)">
<rect height="1" style="fill:rgb(99,155,255);" width="1.001" x="103" y="134"/>
</g>
<g transform="matrix(1,0,0,1,0,-109)">
<rect height="1" style="fill:white;" width="1" x="102" y="134"/>
</g>
<g transform="matrix(1,0,0,1,0,-109)">
<rect height="1" style="fill:rgb(99,155,255);" width="1" x="101" y="134"/>
</g>
<g transform="matrix(1,0,0,1,0,-109)">
<rect height="1" style="fill:rgb(99,155,255);" width="1" x="100" y="134"/>
</g>
<g transform="matrix(1,0,0,1,0,-109)">
<rect height="1" style="fill:white;" width="1" x="99" y="134"/>
</g>
<g transform="matrix(1,0,0,1,0,-109)">
<rect height="1" style="fill:rgb(99,155,255);" width="1" x="98" y="134"/>
</g>
<g transform="matrix(1,0,0,1,0,-109)">
<rect height="1" style="fill:rgb(99,155,255);" width="1" x="97" y="134"/>
</g>
<g transform="matrix(1,0,0,1,0,-109)">
<rect height="1" style="fill:white;" width="1" x="96" y="134"/>
</g>
<g transform="matrix(1,0,0,1,0,-109)">
<rect height="1" style="fill:rgb(99,155,255);" width="1" x="95" y="134"/>
</g>
<g transform="matrix(1,0,0,1,0,-109)">
<rect height="1" style="fill:white;" width="1.001" x="94" y="134"/>
</g>
<g transform="matrix(1,0,0,1,0,-109)">
<rect height="1" style="fill:rgb(99,155,255);" width="1" x="93" y="134"/>
</g>
<g transform="matrix(1,0,0,1,0,-109)">
<rect height="1" style="fill:white;" width="1" x="92" y="134"/>
</g>
<g transform="matrix(1,0,0,1,0,-109)">
<rect height="1" style="fill:rgb(99,155,255);" width="1" x="91" y="134"/>
</g>
<g transform="matrix(1,0,0,1,0,-109)">
<rect height="1" style="fill:rgb(99,155,255);" width="1" x="90" y="134"/>
</g>
<g transform="matrix(1,0,0,1,0,-109)">
<rect height="1" width="1" x="89" y="134"/>
</g>
<g transform="matrix(1,0,0,1,0,-111)">
<rect height="1" width="1.001" x="112" y="135"/>
</g>
<g transform="matrix(1,0,0,1,0,-111)">
<rect height="1" width="1" x="110" y="135"/>
</g>
<g transform="matrix(1,0,0,1,0,-111)">
<rect height="1" style="fill:rgb(91,110,225);" width="1" x="109" y="135"/>
</g>
<g transform="matrix(1,0,0,1,0,-111)">
<rect height="1" width="1" x="108" y="135"/>
</g>
<g transform="matrix(1,0,0,1,0,-111)">
<rect height="1" style="fill:rgb(91,110,225);" width="1" x="107" y="135"/>
</g>
<g transform="matrix(1,0,0,1,0,-111)">
<rect height="1" style="fill:rgb(91,110,225);" width="1" x="106" y="135"/>
</g>
<g transform="matrix(1,0,0,1,0,-111)">
<rect height="1" style="fill:rgb(99,155,255);" width="1" x="105" y="135"/>
</g>
<g transform="matrix(1,0,0,1,0,-111)">
<rect height="1" style="fill:rgb(99,155,255);" width="1" x="104" y="135"/>
</g>
<g transform="matrix(1,0,0,1,0,-111)">
<rect height="1" style="fill:rgb(99,155,255);" width="1.001" x="103" y="135"/>
</g>
<g transform="matrix(1,0,0,1,0,-111)">
<rect height="1" style="fill:rgb(99,155,255);" width="1" x="102" y="135"/>
</g>
<g transform="matrix(1,0,0,1,0,-111)">
<rect height="1" style="fill:rgb(99,155,255);" width="1" x="101" y="135"/>
</g>
<g transform="matrix(1,0,0,1,0,-111)">
<rect height="1" style="fill:rgb(99,155,255);" width="1" x="100" y="135"/>
</g>
<g transform="matrix(1,0,0,1,0,-111)">
<rect height="1" style="fill:rgb(99,155,255);" width="1" x="99" y="135"/>
</g>
<g transform="matrix(1,0,0,1,0,-111)">
<rect height="1" style="fill:rgb(99,155,255);" width="1" x="98" y="135"/>
</g>
<g transform="matrix(1,0,0,1,0,-111)">
<rect height="1" style="fill:rgb(99,155,255);" width="1" x="97" y="135"/>
</g>
<g transform="matrix(1,0,0,1,0,-111)">
<rect height="1" style="fill:rgb(99,155,255);" width="1" x="96" y="135"/>
</g>
<g transform="matrix(1,0,0,1,0,-111)">
<rect height="1" style="fill:rgb(99,155,255);" width="1" x="95" y="135"/>
</g>
<g transform="matrix(1,0,0,1,0,-111)">
<rect height="1" style="fill:rgb(99,155,255);" width="1.001" x="94" y="135"/>
</g>
<g transform="matrix(1,0,0,1,0,-111)">
<rect height="1" style="fill:rgb(99,155,255);" width="1" x="93" y="135"/>
</g>
<g transform="matrix(1,0,0,1,0,-111)">
<rect height="1" style="fill:rgb(99,155,255);" width="1" x="92" y="135"/>
</g>
<g transform="matrix(1,0,0,1,0,-111)">
<rect height="1" style="fill:rgb(99,155,255);" width="1" x="91" y="135"/>
</g>
<g transform="matrix(1,0,0,1,0,-111)">
<rect height="1" style="fill:rgb(99,155,255);" width="1" x="90" y="135"/>
</g>
<g transform="matrix(1,0,0,1,0,-111)">
<rect height="1" width="1" x="89" y="135"/>
</g>
<g transform="matrix(1,0,0,1,0,-111)">
<rect height="1" width="1" x="87" y="135"/>
</g>
<g transform="matrix(1,0,0,1,0,-111)">
<rect height="1" width="1.001" x="85" y="135"/>
</g>
<g transform="matrix(1,0,0,1,0,-113)">
<rect height="1" width="1" x="109" y="136"/>
</g>
<g transform="matrix(1,0,0,1,0,-113)">
<rect height="1" style="fill:rgb(91,110,225);" width="1" x="108" y="136"/>
</g>
<g transform="matrix(1,0,0,1,0,-113)">
<rect height="1" style="fill:rgb(91,110,225);" width="1" x="107" y="136"/>
</g>
<g transform="matrix(1,0,0,1,0,-113)">
<rect height="1" style="fill:white;" width="1" x="106" y="136"/>
</g>
<g transform="matrix(1,0,0,1,0,-113)">
<rect height="1" style="fill:rgb(99,155,255);" width="1" x="105" y="136"/>
</g>
<g transform="matrix(1,0,0,1,0,-113)">
<rect height="1" style="fill:white;" width="1" x="104" y="136"/>
</g>
<g transform="matrix(1,0,0,1,0,-113)">
<rect height="1" style="fill:rgb(99,155,255);" width="1.001" x="103" y="136"/>
</g>
<g transform="matrix(1,0,0,1,0,-113)">
<rect height="1" style="fill:white;" width="1" x="102" y="136"/>
</g>
<g transform="matrix(1,0,0,1,0,-113)">
<rect height="1" style="fill:rgb(99,155,255);" width="1" x="101" y="136"/>
</g>
<g transform="matrix(1,0,0,1,0,-113)">
<rect height="1" style="fill:rgb(99,155,255);" width="1" x="100" y="136"/>
</g>
<g transform="matrix(1,0,0,1,0,-113)">
<rect height="1" style="fill:rgb(99,155,255);" width="1" x="99" y="136"/>
</g>
<g transform="matrix(1,0,0,1,0,-113)">
<rect height="1" style="fill:white;" width="1" x="98" y="136"/>
</g>
<g transform="matrix(1,0,0,1,0,-113)">
<rect height="1" style="fill:rgb(99,155,255);" width="1" x="97" y="136"/>
</g>
<g transform="matrix(1,0,0,1,0,-113)">
<rect height="1" style="fill:white;" width="1" x="96" y="136"/>
</g>
<g transform="matrix(1,0,0,1,0,-113)">
<rect height="1" style="fill:white;" width="1" x="95" y="136"/>
</g>
<g transform="matrix(1,0,0,1,0,-113)">
<rect height="1" style="fill:rgb(99,155,255);" width="1.001" x="94" y="136"/>
</g>
<g transform="matrix(1,0,0,1,0,-113)">
<rect height="1" style="fill:rgb(99,155,255);" width="1" x="93" y="136"/>
</g>
<g transform="matrix(1,0,0,1,0,-113)">
<rect height="1" style="fill:white;" width="1" x="92" y="136"/>
</g>
<g transform="matrix(1,0,0,1,0,-113)">
<rect height="1" style="fill:white;" width="1" x="91" y="136"/>
</g>
<g transform="matrix(1,0,0,1,0,-113)">
<rect height="1" style="fill:rgb(99,155,255);" width="1" x="90" y="136"/>
</g>
<g transform="matrix(1,0,0,1,0,-113)">
<rect height="1" width="1" x="89" y="136"/>
</g>
<g transform="matrix(1,0,0,1,0,-115)">
<rect height="1" width="1" x="109" y="137"/>
</g>
<g transform="matrix(1,0,0,1,0,-115)">
<rect height="1" style="fill:rgb(91,110,225);" width="1" x="108" y="137"/>
</g>
<g transform="matrix(1,0,0,1,0,-115)">
<rect height="1" style="fill:rgb(91,110,225);" width="1" x="107" y="137"/>
</g>
<g transform="matrix(1,0,0,1,0,-115)">
<rect height="1" style="fill:white;" width="1" x="106" y="137"/>
</g>
<g transform="matrix(1,0,0,1,0,-115)">
<rect height="1" style="fill:rgb(99,155,255);" width="1" x="105" y="137"/>
</g>
<g transform="matrix(1,0,0,1,0,-115)">
<rect height="1" style="fill:white;" width="1" x="104" y="137"/>
</g>
<g transform="matrix(1,0,0,1,0,-115)">
<rect height="1" style="fill:rgb(99,155,255);" width="1.001" x="103" y="137"/>
</g>
<g transform="matrix(1,0,0,1,0,-115)">
<rect height="1" style="fill:rgb(99,155,255);" width="1" x="102" y="137"/>
</g>
<g transform="matrix(1,0,0,1,0,-115)">
<rect height="1" style="fill:white;" width="1" x="101" y="137"/>
</g>
<g transform="matrix(1,0,0,1,0,-115)">
<rect height="1" style="fill:rgb(99,155,255);" width="1" x="100" y="137"/>
</g>
<g transform="matrix(1,0,0,1,0,-115)">
<rect height="1" style="fill:white;" width="1" x="99" y="137"/>
</g>
<g transform="matrix(1,0,0,1,0,-115)">
<rect height="1" style="fill:rgb(99,155,255);" width="1" x="98" y="137"/>
</g>
<g transform="matrix(1,0,0,1,0,-115)">
<rect height="1" style="fill:white;" width="1" x="97" y="137"/>
</g>
<g transform="matrix(1,0,0,1,0,-115)">
<rect height="1" style="fill:rgb(99,155,255);" width="1" x="96" y="137"/>
</g>
<g transform="matrix(1,0,0,1,0,-115)">
<rect height="1" style="fill:white;" width="1" x="95" y="137"/>
</g>
<g transform="matrix(1,0,0,1,0,-115)">
<rect height="1" style="fill:rgb(99,155,255);" width="1.001" x="94" y="137"/>
</g>
<g transform="matrix(1,0,0,1,0,-115)">
<rect height="1" style="fill:white;" width="1" x="93" y="137"/>
</g>
<g transform="matrix(1,0,0,1,0,-115)">
<rect height="1" style="fill:rgb(99,155,255);" width="1" x="92" y="137"/>
</g>
<g transform="matrix(1,0,0,1,0,-115)">
<rect height="1" style="fill:white;" width="1" x="91" y="137"/>
</g>
<g transform="matrix(1,0,0,1,0,-115)">
<rect height="1" style="fill:rgb(99,155,255);" width="1" x="90" y="137"/>
</g>
<g transform="matrix(1,0,0,1,0,-115)">
<rect height="1" width="1" x="89" y="137"/>
</g>
<g transform="matrix(1,0,0,1,0,-117)">
<rect height="1" width="1" x="109" y="138"/>
</g>
<g transform="matrix(1,0,0,1,0,-117)">
<rect height="1" style="fill:rgb(91,110,225);" width="1" x="108" y="138"/>
</g>
<g transform="matrix(1,0,0,1,0,-117)">
<rect height="1" style="fill:rgb(91,110,225);" width="1" x="107" y="138"/>
</g>
<g transform="matrix(1,0,0,1,0,-117)">
<rect height="1" style="fill:rgb(91,110,225);" width="1" x="106" y="138"/>
</g>
<g transform="matrix(1,0,0,1,0,-117)">
<rect height="1" style="fill:white;" width="1" x="105" y="138"/>
</g>
<g transform="matrix(1,0,0,1,0,-117)">
<rect height="1" style="fill:white;" width="1" x="104" y="138"/>
</g>
<g transform="matrix(1,0,0,1,0,-117)">
<rect height="1" style="fill:rgb(99,155,255);" width="1.001" x="103" y="138"/>
</g>
<g transform="matrix(1,0,0,1,0,-117)">
<rect height="1" style="fill:rgb(99,155,255);" width="1" x="102" y="138"/>
</g>
<g transform="matrix(1,0,0,1,0,-117)">
<rect height="1" style="fill:white;" width="1" x="101" y="138"/>
</g>
<g transform="matrix(1,0,0,1,0,-117)">
<rect height="1" style="fill:rgb(99,155,255);" width="1" x="100" y="138"/>
</g>
<g transform="matrix(1,0,0,1,0,-117)">
<rect height="1" style="fill:white;" width="1" x="99" y="138"/>
</g>
<g transform="matrix(1,0,0,1,0,-117)">
<rect height="1" style="fill:rgb(99,155,255);" width="1" x="98" y="138"/>
</g>
<g transform="matrix(1,0,0,1,0,-117)">
<rect height="1" style="fill:white;" width="1" x="97" y="138"/>
</g>
<g transform="matrix(1,0,0,1,0,-117)">
<rect height="1" style="fill:rgb(99,155,255);" width="1" x="96" y="138"/>
</g>
<g transform="matrix(1,0,0,1,0,-117)">
<rect height="1" style="fill:white;" width="1" x="95" y="138"/>
</g>
<g transform="matrix(1,0,0,1,0,-117)">
<rect height="1" style="fill:rgb(99,155,255);" width="1.001" x="94" y="138"/>
</g>
<g transform="matrix(1,0,0,1,0,-117)">
<rect height="1" style="fill:rgb(99,155,255);" width="1" x="93" y="138"/>
</g>
<g transform="matrix(1,0,0,1,0,-117)">
<rect height="1" style="fill:white;" width="1" x="92" y="138"/>
</g>
<g transform="matrix(1,0,0,1,0,-117)">
<rect height="1" style="fill:white;" width="1" x="91" y="138"/>
</g>
<g transform="matrix(1,0,0,1,0,-117)">
<rect height="1" style="fill:rgb(99,155,255);" width="1" x="90" y="138"/>
</g>
<g transform="matrix(1,0,0,1,0,-117)">
<rect height="1" width="1" x="89" y="138"/>
</g>
<g transform="matrix(1,0,0,1,0,-119.001)">
<rect height="1.001" width="1" x="109" y="139"/>
</g>
<g transform="matrix(1,0,0,1,0,-119.001)">
<rect height="1.001" style="fill:rgb(91,110,225);" width="1" x="108" y="139"/>
</g>
<g transform="matrix(1,0,0,1,0,-119.001)">
<rect height="1.001" style="fill:rgb(91,110,225);" width="1" x="107" y="139"/>
</g>
<g transform="matrix(1,0,0,1,0,-119.001)">
<rect height="1.001" style="fill:white;" width="1" x="106" y="139"/>
</g>
<g transform="matrix(1,0,0,1,0,-119.001)">
<rect height="1.001" style="fill:rgb(99,155,255);" width="1" x="105" y="139"/>
</g>
<g transform="matrix(1,0,0,1,0,-119.001)">
<rect height="1.001" style="fill:white;" width="1" x="104" y="139"/>
</g>
<g transform="matrix(1,0,0,1,0,-119.001)">
<rect height="1.001" style="fill:rgb(99,155,255);" width="1.001" x="103" y="139"/>
</g>
<g transform="matrix(1,0,0,1,0,-119.001)">
<rect height="1.001" style="fill:rgb(99,155,255);" width="1" x="102" y="139"/>
</g>
<g transform="matrix(1,0,0,1,0,-119.001)">
<rect height="1.001" style="fill:white;" width="1" x="101" y="139"/>
</g>
<g transform="matrix(1,0,0,1,0,-119.001)">
<rect height="1.001" style="fill:rgb(99,155,255);" width="1" x="100" y="139"/>
</g>
<g transform="matrix(1,0,0,1,0,-119.001)">
<rect height="1.001" style="fill:white;" width="1" x="99" y="139"/>
</g>
<g transform="matrix(1,0,0,1,0,-119.001)">
<rect height="1.001" style="fill:rgb(99,155,255);" width="1" x="98" y="139"/>
</g>
<g transform="matrix(1,0,0,1,0,-119.001)">
<rect height="1.001" style="fill:white;" width="1" x="97" y="139"/>
</g>
<g transform="matrix(1,0,0,1,0,-119.001)">
<rect height="1.001" style="fill:rgb(99,155,255);" width="1" x="96" y="139"/>
</g>
<g transform="matrix(1,0,0,1,0,-119.001)">
<rect height="1.001" style="fill:white;" width="1" x="95" y="139"/>
</g>
<g transform="matrix(1,0,0,1,0,-119.001)">
<rect height="1.001" style="fill:rgb(99,155,255);" width="1.001" x="94" y="139"/>
</g>
<g transform="matrix(1,0,0,1,0,-119.001)">
<rect height="1.001" style="fill:white;" width="1" x="93" y="139"/>
</g>
<g transform="matrix(1,0,0,1,0,-119.001)">
<rect height="1.001" style="fill:rgb(99,155,255);" width="1" x="92" y="139"/>
</g>
<g transform="matrix(1,0,0,1,0,-119.001)">
<rect height="1.001" style="fill:white;" width="1" x="91" y="139"/>
</g>
<g transform="matrix(1,0,0,1,0,-119.001)">
<rect height="1.001" style="fill:rgb(99,155,255);" width="1" x="90" y="139"/>
</g>
<g transform="matrix(1,0,0,1,0,-119.001)">
<rect height="1.001" width="1" x="89" y="139"/>
</g>
<g transform="matrix(1,0,0,1,0,-121)">
<rect height="1" width="1" x="109" y="140"/>
</g>
<g transform="matrix(1,0,0,1,0,-121)">
<rect height="1" style="fill:rgb(91,110,225);" width="1" x="108" y="140"/>
</g>
<g transform="matrix(1,0,0,1,0,-121)">
<rect height="1" style="fill:rgb(91,110,225);" width="1" x="107" y="140"/>
</g>
<g transform="matrix(1,0,0,1,0,-121)">
<rect height="1" style="fill:white;" width="1" x="106" y="140"/>
</g>
<g transform="matrix(1,0,0,1,0,-121)">
<rect height="1" style="fill:rgb(99,155,255);" width="1" x="105" y="140"/>
</g>
<g transform="matrix(1,0,0,1,0,-121)">
<rect height="1" style="fill:white;" width="1" x="104" y="140"/>
</g>
<g transform="matrix(1,0,0,1,0,-121)">
<rect height="1" style="fill:rgb(99,155,255);" width="1.001" x="103" y="140"/>
</g>
<g transform="matrix(1,0,0,1,0,-121)">
<rect height="1" style="fill:white;" width="1" x="102" y="140"/>
</g>
<g transform="matrix(1,0,0,1,0,-121)">
<rect height="1" style="fill:rgb(99,155,255);" width="1" x="101" y="140"/>
</g>
<g transform="matrix(1,0,0,1,0,-121)">
<rect height="1" style="fill:rgb(99,155,255);" width="1" x="100" y="140"/>
</g>
<g transform="matrix(1,0,0,1,0,-121)">
<rect height="1" style="fill:rgb(99,155,255);" width="1" x="99" y="140"/>
</g>
<g transform="matrix(1,0,0,1,0,-121)">
<rect height="1" style="fill:white;" width="1" x="98" y="140"/>
</g>
<g transform="matrix(1,0,0,1,0,-121)">
<rect height="1" style="fill:rgb(99,155,255);" width="1" x="97" y="140"/>
</g>
<g transform="matrix(1,0,0,1,0,-121)">
<rect height="1" style="fill:rgb(99,155,255);" width="1" x="96" y="140"/>
</g>
<g transform="matrix(1,0,0,1,0,-121)">
<rect height="1" style="fill:white;" width="1" x="95" y="140"/>
</g>
<g transform="matrix(1,0,0,1,0,-121)">
<rect height="1" style="fill:rgb(99,155,255);" width="1.001" x="94" y="140"/>
</g>
<g transform="matrix(1,0,0,1,0,-121)">
<rect height="1" style="fill:rgb(99,155,255);" width="1" x="93" y="140"/>
</g>
<g transform="matrix(1,0,0,1,0,-121)">
<rect height="1" style="fill:white;" width="1" x="92" y="140"/>
</g>
<g transform="matrix(1,0,0,1,0,-121)">
<rect height="1" style="fill:white;" width="1" x="91" y="140"/>
</g>
<g transform="matrix(1,0,0,1,0,-121)">
<rect height="1" style="fill:rgb(99,155,255);" width="1" x="90" y="140"/>
</g>
<g transform="matrix(1,0,0,1,0,-121)">
<rect height="1" width="1" x="89" y="140"/>
</g>
<g transform="matrix(1,0,0,1,0,-123)">
<rect height="1" width="1" x="109" y="141"/>
</g>
<g transform="matrix(1,0,0,1,0,-123)">
<rect height="1" style="fill:rgb(91,110,225);" width="1" x="108" y="141"/>
</g>
<g transform="matrix(1,0,0,1,0,-123)">
<rect height="1" style="fill:rgb(91,110,225);" width="1" x="107" y="141"/>
</g>
<g transform="matrix(1,0,0,1,0,-123)">
<rect height="1" style="fill:rgb(91,110,225);" width="1" x="106" y="141"/>
</g>
<g transform="matrix(1,0,0,1,0,-123)">
<rect height="1" style="fill:rgb(99,155,255);" width="1" x="105" y="141"/>
</g>
<g transform="matrix(1,0,0,1,0,-123)">
<rect height="1" style="fill:rgb(99,155,255);" width="1" x="104" y="141"/>
</g>
<g transform="matrix(1,0,0,1,0,-123)">
<rect height="1" style="fill:rgb(99,155,255);" width="1.001" x="103" y="141"/>
</g>
<g transform="matrix(1,0,0,1,0,-123)">
<rect height="1" style="fill:rgb(99,155,255);" width="1" x="102" y="141"/>
</g>
<g transform="matrix(1,0,0,1,0,-123)">
<rect height="1" style="fill:rgb(99,155,255);" width="1" x="101" y="141"/>
</g>
<g transform="matrix(1,0,0,1,0,-123)">
<rect height="1" style="fill:rgb(99,155,255);" width="1" x="100" y="141"/>
</g>
<g transform="matrix(1,0,0,1,0,-123)">
<rect height="1" style="fill:rgb(99,155,255);" width="1" x="99" y="141"/>
</g>
<g transform="matrix(1,0,0,1,0,-123)">
<rect height="1" style="fill:rgb(99,155,255);" width="1" x="98" y="141"/>
</g>
<g transform="matrix(1,0,0,1,0,-123)">
<rect height="1" style="fill:rgb(99,155,255);" width="1" x="97" y="141"/>
</g>
<g transform="matrix(1,0,0,1,0,-123)">
<rect height="1" style="fill:rgb(99,155,255);" width="1" x="96" y="141"/>
</g>
<g transform="matrix(1,0,0,1,0,-123)">
<rect height="1" style="fill:rgb(99,155,255);" width="1" x="95" y="141"/>
</g>
<g transform="matrix(1,0,0,1,0,-123)">
<rect height="1" style="fill:rgb(99,155,255);" width="1.001" x="94" y="141"/>
</g>
<g transform="matrix(1,0,0,1,0,-123)">
<rect height="1" style="fill:rgb(99,155,255);" width="1" x="93" y="141"/>
</g>
<g transform="matrix(1,0,0,1,0,-123)">
<rect height="1" style="fill:rgb(99,155,255);" width="1" x="92" y="141"/>
</g>
<g transform="matrix(1,0,0,1,0,-123)">
<rect height="1" style="fill:rgb(99,155,255);" width="1" x="91" y="141"/>
</g>
<g transform="matrix(1,0,0,1,0,-123)">
<rect height="1" style="fill:rgb(99,155,255);" width="1" x="90" y="141"/>
</g>
<g transform="matrix(1,0,0,1,0,-123)">
<rect height="1" width="1" x="89" y="141"/>
</g>
<g transform="matrix(1,0,0,1,0,-125)">
<rect height="1" width="1" x="109" y="142"/>
</g>
<g transform="matrix(1,0,0,1,0,-125)">
<rect height="1" style="fill:rgb(91,110,225);" width="1" x="108" y="142"/>
</g>
<g transform="matrix(1,0,0,1,0,-125)">
<rect height="1" style="fill:rgb(91,110,225);" width="1" x="107" y="142"/>
</g>
<g transform="matrix(1,0,0,1,0,-125)">
<rect height="1" style="fill:rgb(91,110,225);" width="1" x="106" y="142"/>
</g>
<g transform="matrix(1,0,0,1,0,-125)">
<rect height="1" style="fill:rgb(91,110,225);" width="1" x="105" y="142"/>
</g>
<g transform="matrix(1,0,0,1,0,-125)">
<rect height="1" style="fill:rgb(99,155,255);" width="1" x="104" y="142"/>
</g>
<g transform="matrix(1,0,0,1,0,-125)">
<rect height="1" style="fill:rgb(99,155,255);" width="1.001" x="103" y="142"/>
</g>
<g transform="matrix(1,0,0,1,0,-125)">
<rect height="1" style="fill:rgb(99,155,255);" width="1" x="102" y="142"/>
</g>
<g transform="matrix(1,0,0,1,0,-125)">
<rect height="1" style="fill:rgb(99,155,255);" width="1" x="101" y="142"/>
</g>
<g transform="matrix(1,0,0,1,0,-125)">
<rect height="1" style="fill:rgb(99,155,255);" width="1" x="100" y="142"/>
</g>
<g transform="matrix(1,0,0,1,0,-125)">
<rect height="1" style="fill:rgb(99,155,255);" width="1" x="99" y="142"/>
</g>
<g transform="matrix(1,0,0,1,0,-125)">
<rect height="1" style="fill:rgb(99,155,255);" width="1" x="98" y="142"/>
</g>
<g transform="matrix(1,0,0,1,0,-125)">
<rect height="1" style="fill:rgb(99,155,255);" width="1" x="97" y="142"/>
</g>
<g transform="matrix(1,0,0,1,0,-125)">
<rect height="1" style="fill:rgb(99,155,255);" width="1" x="96" y="142"/>
</g>
<g transform="matrix(1,0,0,1,0,-125)">
<rect height="1" style="fill:rgb(99,155,255);" width="1" x="95" y="142"/>
</g>
<g transform="matrix(1,0,0,1,0,-125)">
<rect height="1" style="fill:rgb(99,155,255);" width="1.001" x="94" y="142"/>
</g>
<g transform="matrix(1,0,0,1,0,-125)">
<rect height="1" style="fill:rgb(99,155,255);" width="1" x="93" y="142"/>
</g>
<g transform="matrix(1,0,0,1,0,-125)">
<rect height="1" style="fill:rgb(99,155,255);" width="1" x="92" y="142"/>
</g>
<g transform="matrix(1,0,0,1,0,-125)">
<rect height="1" style="fill:rgb(99,155,255);" width="1" x="91" y="142"/>
</g>
<g transform="matrix(1,0,0,1,0,-125)">
<rect height="1" style="fill:rgb(91,110,225);" width="1" x="90" y="142"/>
</g>
<g transform="matrix(1,0,0,1,0,-125)">
<rect height="1" width="1" x="89" y="142"/>
</g>
<g transform="matrix(1,0,0,1,0,-127)">
<rect height="1" width="1" x="109" y="143"/>
</g>
<g transform="matrix(1,0,0,1,0,-127)">
<rect height="1" style="fill:rgb(91,110,225);" width="1" x="108" y="143"/>
</g>
<g transform="matrix(1,0,0,1,0,-127)">
<rect height="1" style="fill:rgb(91,110,225);" width="1" x="107" y="143"/>
</g>
<g transform="matrix(1,0,0,1,0,-127)">
<rect height="1" style="fill:rgb(91,110,225);" width="1" x="106" y="143"/>
</g>
<g transform="matrix(1,0,0,1,0,-127)">
<rect height="1" width="1" x="105" y="143"/>
</g>
<g transform="matrix(1,0,0,1,0,-127)">
<rect height="1" width="1" x="104" y="143"/>
</g>
<g transform="matrix(1,0,0,1,0,-127)">
<rect height="1" style="fill:rgb(91,110,225);" width="1.001" x="103" y="143"/>
</g>
<g transform="matrix(1,0,0,1,0,-127)">
<rect height="1" style="fill:rgb(91,110,225);" width="1" x="102" y="143"/>
</g>
<g transform="matrix(1,0,0,1,0,-127)">
<rect height="1" style="fill:rgb(91,110,225);" width="1" x="101" y="143"/>
</g>
<g transform="matrix(1,0,0,1,0,-127)">
<rect height="1" width="1" x="100" y="143"/>
</g>
<g transform="matrix(1,0,0,1,0,-127)">
<rect height="1" style="fill:rgb(91,110,225);" width="1" x="99" y="143"/>
</g>
<g transform="matrix(1,0,0,1,0,-127)">
<rect height="1" width="1" x="98" y="143"/>
</g>
<g transform="matrix(1,0,0,1,0,-127)">
<rect height="1" width="1" x="97" y="143"/>
</g>
<g transform="matrix(1,0,0,1,0,-127)">
<rect height="1" width="1" x="96" y="143"/>
</g>
<g transform="matrix(1,0,0,1,0,-127)">
<rect height="1" width="1" x="95" y="143"/>
</g>
<g transform="matrix(1,0,0,1,0,-127)">
<rect height="1" width="1.001" x="94" y="143"/>
</g>
<g transform="matrix(1,0,0,1,0,-127)">
<rect height="1" width="1" x="93" y="143"/>
</g>
<g transform="matrix(1,0,0,1,0,-127)">
<rect height="1" width="1" x="92" y="143"/>
</g>
<g transform="matrix(1,0,0,1,0,-127)">
<rect height="1" width="1" x="91" y="143"/>
</g>
<g transform="matrix(1,0,0,1,0,-127)">
<rect height="1" width="1" x="90" y="143"/>
</g>
<g transform="matrix(1,0,0,1,0,-129)">
<rect height="1" width="1" x="109" y="144"/>
</g>
<g transform="matrix(1,0,0,1,0,-129)">
<rect height="1" style="fill:rgb(91,110,225);" width="1" x="108" y="144"/>
</g>
<g transform="matrix(1,0,0,1,0,-129)">
<rect height="1" width="1" x="107" y="144"/>
</g>
<g transform="matrix(1,0,0,1,0,-129)">
<rect height="1" style="fill:rgb(91,110,225);" width="1" x="106" y="144"/>
</g>
<g transform="matrix(1,0,0,1,0,-129)">
<rect height="1" style="fill:rgb(91,110,225);" width="1" x="105" y="144"/>
</g>
<g transform="matrix(1,0,0,1,0,-129)">
<rect height="1" style="fill:rgb(91,110,225);" width="1" x="104" y="144"/>
</g>
<g transform="matrix(1,0,0,1,0,-129)">
<rect height="1" style="fill:rgb(91,110,225);" width="1.001" x="103" y="144"/>
</g>
<g transform="matrix(1,0,0,1,0,-129)">
<rect height="1" style="fill:rgb(91,110,225);" width="1" x="102" y="144"/>
</g>
<g transform="matrix(1,0,0,1,0,-129)">
<rect height="1" style="fill:rgb(91,110,225);" width="1" x="101" y="144"/>
</g>
<g transform="matrix(1,0,0,1,0,-129)">
<rect height="1" style="fill:rgb(91,110,225);" width="1" x="100" y="144"/>
</g>
<g transform="matrix(1,0,0,1,0,-129)">
<rect height="1" style="fill:rgb(91,110,225);" width="1" x="99" y="144"/>
</g>
<g transform="matrix(1,0,0,1,0,-129)">
<rect height="1" style="fill:rgb(91,110,225);" width="1" x="98" y="144"/>
</g>
<g transform="matrix(1,0,0,1,0,-129)">
<rect height="1" style="fill:rgb(91,110,225);" width="1" x="97" y="144"/>
</g>
<g transform="matrix(1,0,0,1,0,-129)">
<rect height="1" style="fill:rgb(91,110,225);" width="1" x="96" y="144"/>
</g>
<g transform="matrix(1,0,0,1,0,-129)">
<rect height="1" style="fill:rgb(91,110,225);" width="1" x="95" y="144"/>
</g>
<g transform="matrix(1,0,0,1,0,-129)">
<rect height="1" style="fill:rgb(91,110,225);" width="1.001" x="94" y="144"/>
</g>
<g transform="matrix(1,0,0,1,0,-129)">
<rect height="1" style="fill:rgb(91,110,225);" width="1" x="93" y="144"/>
</g>
<g transform="matrix(1,0,0,1,0,-129)">
<rect height="1" style="fill:rgb(91,110,225);" width="1" x="92" y="144"/>
</g>
<g transform="matrix(1,0,0,1,0,-129)">
<rect height="1" style="fill:rgb(91,110,225);" width="1" x="91" y="144"/>
</g>
<g transform="matrix(1,0,0,1,0,-129)">
<rect height="1" width="1" x="90" y="144"/>
</g>
<g transform="matrix(1,0,0,1,0,-131)">
<rect height="1" width="1" x="109" y="145"/>
</g>
<g transform="matrix(1,0,0,1,0,-131)">
<rect height="1" width="1" x="108" y="145"/>
</g>
<g transform="matrix(1,0,0,1,0,-131)">
<rect height="1" style="fill:rgb(91,110,225);" width="1" x="107" y="145"/>
</g>
<g transform="matrix(1,0,0,1,0,-131)">
<rect height="1" style="fill:rgb(91,110,225);" width="1" x="106" y="145"/>
</g>
<g transform="matrix(1,0,0,1,0,-131)">
<rect height="1" style="fill:rgb(91,110,225);" width="1" x="105" y="145"/>
</g>
<g transform="matrix(1,0,0,1,0,-131)">
<rect height="1" style="fill:rgb(91,110,225);" width="1" x="104" y="145"/>
</g>
<g transform="matrix(1,0,0,1,0,-131)">
<rect height="1" style="fill:rgb(91,110,225);" width="1.001" x="103" y="145"/>
</g>
<g transform="matrix(1,0,0,1,0,-131)">
<rect height="1" style="fill:rgb(91,110,225);" width="1" x="102" y="145"/>
</g>
<g transform="matrix(1,0,0,1,0,-131)">
<rect height="1" style="fill:rgb(91,110,225);" width="1" x="101" y="145"/>
</g>
<g transform="matrix(1,0,0,1,0,-131)">
<rect height="1" style="fill:rgb(91,110,225);" width="1" x="100" y="145"/>
</g>
<g transform="matrix(1,0,0,1,0,-131)">
<rect height="1" width="1" x="99" y="145"/>
</g>
<g transform="matrix(1,0,0,1,0,-131)">
<rect height="1" style="fill:rgb(91,110,225);" width="1" x="98" y="145"/>
</g>
<g transform="matrix(1,0,0,1,0,-131)">
<rect height="1" style="fill:rgb(91,110,225);" width="1" x="97" y="145"/>
</g>
<g transform="matrix(1,0,0,1,0,-131)">
<rect height="1" style="fill:rgb(91,110,225);" width="1" x="96" y="145"/>
</g>
<g transform="matrix(1,0,0,1,0,-131)">
<rect height="1" style="fill:rgb(91,110,225);" width="1" x="95" y="145"/>
</g>
<g transform="matrix(1,0,0,1,0,-131)">
<rect height="1" style="fill:rgb(91,110,225);" width="1.001" x="94" y="145"/>
</g>
<g transform="matrix(1,0,0,1,0,-131)">
<rect height="1" style="fill:rgb(91,110,225);" width="1" x="93" y="145"/>
</g>
<g transform="matrix(1,0,0,1,0,-131)">
<rect height="1" style="fill:rgb(91,110,225);" width="1" x="92" y="145"/>
</g>
<g transform="matrix(1,0,0,1,0,-131)">
<rect height="1" width="1" x="91" y="145"/>
</g>
<g transform="matrix(1,0,0,1,0,-133)">
<rect height="1" width="1" x="108" y="146"/>
</g>
<g transform="matrix(1,0,0,1,0,-133)">
<rect height="1" width="1" x="107" y="146"/>
</g>
<g transform="matrix(1,0,0,1,0,-133)">
<rect height="1" width="1" x="106" y="146"/>
</g>
<g transform="matrix(1,0,0,1,0,-133)">
<rect height="1" width="1" x="105" y="146"/>
</g>
<g transform="matrix(1,0,0,1,0,-133)">
<rect height="1" width="1" x="104" y="146"/>
</g>
<g transform="matrix(1,0,0,1,0,-133)">
<rect height="1" width="1.001" x="103" y="146"/>
</g>
<g transform="matrix(1,0,0,1,0,-133)">
<rect height="1" width="1" x="102" y="146"/>
</g>
<g transform="matrix(1,0,0,1,0,-133)">
<rect height="1" width="1" x="101" y="146"/>
</g>
<g transform="matrix(1,0,0,1,0,-133)">
<rect height="1" width="1" x="100" y="146"/>
</g>
<g transform="matrix(1,0,0,1,0,-133)">
<rect height="1" style="fill:rgb(91,110,225);" width="1" x="99" y="146"/>
</g>
<g transform="matrix(1,0,0,1,0,-133)">
<rect height="1" width="1" x="98" y="146"/>
</g>
<g transform="matrix(1,0,0,1,0,-133)">
<rect height="1" width="1" x="97" y="146"/>
</g>
<g transform="matrix(1,0,0,1,0,-133)">
<rect height="1" width="1" x="96" y="146"/>
</g>
<g transform="matrix(1,0,0,1,0,-133)">
<rect height="1" width="1" x="95" y="146"/>
</g>
<g transform="matrix(1,0,0,1,0,-133)">
<rect height="1" width="1.001" x="94" y="146"/>
</g>
<g transform="matrix(1,0,0,1,0,-133)">
<rect height="1" width="1" x="93" y="146"/>
</g>
<g transform="matrix(1,0,0,1,0,-133)">
<rect height="1" width="1" x="92" y="146"/>
</g>
<g transform="matrix(1,0,0,1,0,-135)">
<rect height="1" width="1" x="99" y="147"/>
</g>
<g transform="matrix(1,0,0,1,0,-139)">
<rect height="1" width="1" x="99" y="149"/>
</g>
</g>
</g>
</svg>