<?xml version="1.0" encoding="UTF-8" standalone="no"?>
<!-- Uploaded to: SVG Repo, www.svgrepo.com, Generator: SVG Repo Mixer Tools -->
<svg width="800px" height="800px" viewBox="0 0 64 64" version="1.1" xmlns="http://www.w3.org/2000/svg" xmlns:xlink="http://www.w3.org/1999/xlink">
    
    <title>db-copy</title>
    <desc>Created with Sketch.</desc>
    <defs>

</defs>
    <g id="General" stroke="none" stroke-width="1" fill="none" fill-rule="evenodd">
        <g id="SLICES-64px" transform="translate(0.000000, -400.000000)">

</g>
        <g id="ICONS" transform="translate(5.000000, -395.000000)">
            <g id="db-copy" transform="translate(2.000000, 400.000000)">
                <path d="M37,34 C29.82,34 24,32.656 24,31 L24,39 C24,40.656 29.82,42 37,42 C44.18,42 50,40.656 50,39 L50,31 C50,32.656 44.18,34 37,34" id="Fill-785" fill="#4BAADC">

</path>
                <path d="M37,26 C29.82,26 24,24.656 24,23 L24,31 C24,32.656 29.82,34 37,34 C44.18,34 50,32.656 50,31 L50,23 C50,24.656 44.18,26 37,26" id="Fill-786" fill="#4BAADC">

</path>
                <path d="M37,18 C29.82,18 24,16.656 24,15 L24,23 C24,24.656 29.82,26 37,26 C44.18,26 50,24.656 50,23 L50,15 C50,16.656 44.18,18 37,18" id="Fill-787" fill="#4BAADC">

</path>
                <path d="M50,15 C50,16.657 44.18,18 37,18 C29.82,18 24,16.657 24,15 C24,13.343 29.82,12 37,12 C44.18,12 50,13.343 50,15" id="Fill-788" fill="#A0DCF0">

</path>
                <path d="M13,44 C5.82,44 0,42.656 0,41 L0,49 C0,50.656 5.82,52 13,52 C20.18,52 26,50.656 26,49 L26,41 C26,42.656 20.18,44 13,44" id="Fill-789" fill="#4BAADC">

</path>
                <path d="M13,36 C5.82,36 0,34.656 0,33 L0,41 C0,42.656 5.82,44 13,44 C20.18,44 26,42.656 26,41 L26,33 C26,34.656 20.18,36 13,36" id="Fill-790" fill="#4BAADC">

</path>
                <path d="M13,28 C5.82,28 0,26.656 0,25 L0,33 C0,34.656 5.82,36 13,36 C20.18,36 26,34.656 26,33 L26,25 C26,26.656 20.18,28 13,28" id="Fill-791" fill="#4BAADC">

</path>
                <path d="M26,25 C26,26.657 20.18,28 13,28 C5.82,28 0,26.657 0,25 C0,23.343 5.82,22 13,22 C20.18,22 26,23.343 26,25" id="Fill-792" fill="#A0DCF0">

</path>
                <path d="M26,25 C26,26.657 20.18,28 13,28 C5.82,28 0,26.657 0,25 C0,23.343 5.82,22 13,22 C20.18,22 26,23.343 26,25 Z" id="Stroke-793" stroke="#1E69A0" stroke-width="2" stroke-linecap="round" stroke-linejoin="round">

</path>
                <path d="M26,33 C26,34.657 20.18,36 13,36 C5.82,36 0,34.657 0,33" id="Stroke-794" stroke="#1E69A0" stroke-width="2" stroke-linecap="round" stroke-linejoin="round">

</path>
                <path d="M26,41 C26,42.657 20.18,44 13,44 C5.82,44 0,42.657 0,41" id="Stroke-795" stroke="#1E69A0" stroke-width="2" stroke-linecap="round" stroke-linejoin="round">

</path>
                <path d="M0,25 L0,49 C0,50.657 5.82,52 13,52 C20.18,52 26,50.657 26,49 L26,25" id="Stroke-796" stroke="#1E69A0" stroke-width="2" stroke-linecap="round" stroke-linejoin="round">

</path>
                <path d="M50,15 C50,16.657 44.18,18 37,18 C29.82,18 24,16.657 24,15 C24,13.343 29.82,12 37,12 C44.18,12 50,13.343 50,15 Z" id="Stroke-797" stroke="#1E69A0" stroke-width="2" stroke-linecap="round" stroke-linejoin="round">

</path>
                <path d="M26.001,40.5996 C28.304,41.4416 32.369,41.9996 37,41.9996 C44.18,41.9996 50,40.6576 50,38.9996 L50,14.9996" id="Stroke-798" stroke="#1E69A0" stroke-width="2" stroke-linecap="round" stroke-linejoin="round">

</path>
                <path d="M25.9951,32.5977 C28.2971,33.4407 32.3651,33.9997 37.0001,33.9997 C44.1801,33.9997 50.0001,32.6577 50.0001,30.9997" id="Stroke-799" stroke="#1E69A0" stroke-width="2" stroke-linecap="round" stroke-linejoin="round">

</path>
                <path d="M25.8418,24.54 C28.1128,25.415 32.2608,26 36.9998,26 C44.1798,26 49.9998,24.657 49.9998,23" id="Stroke-800" stroke="#1E69A0" stroke-width="2" stroke-linecap="round" stroke-linejoin="round">

</path>
                <path d="M24,15 L24,23.401" id="Stroke-801" stroke="#1E69A0" stroke-width="2" stroke-linecap="round" stroke-linejoin="round">

</path>
                <path d="M34.9443,8.0068 C33.1793,3.2738 29.3903,-0.0002 25.0003,-0.0002 C18.9243,-0.0002 14.0003,6.2678 14.0003,13.9998 L14.0003,17.9998" id="Stroke-802" stroke="#4BAADC" stroke-width="2" stroke-linecap="round" stroke-linejoin="round">

</path>
                <polyline id="Stroke-803" stroke="#4BAADC" stroke-width="2" stroke-linecap="round" stroke-linejoin="round" points="9 13 14 18 19 13">

</polyline>
            </g>
        </g>
    </g>
</svg>