<?xml version="1.0" encoding="utf-8"?>
<!DOCTYPE svg PUBLIC "-//W3C//DTD SVG 1.1//EN" "http://www.w3.org/Graphics/SVG/1.1/DTD/svg11.dtd">
<svg version="1.1" id="Layer_1" xmlns="http://www.w3.org/2000/svg" xmlns:xlink="http://www.w3.org/1999/xlink" x="0px" y="0px"
	 viewBox="0 0 1484 1066" enable-background="new 0 0 1484 1066" xml:space="preserve">
<g>
	<path fill="#FFFFFF" stroke="#FFFFFF" stroke-width="0.0938" d="M1096.33,179.37c22.26-7.83,46.2001-10.12,69.65-8.42
		c37.3101,2.21,73.67,18.47,99.87,45.18c14.74,14.2,26.76,31.13,35.8101,49.47c3.1699,7.43,6.89,14.7,8.75,22.61
		c-4.65-4.07-10.1-7.01-15.14-10.53c-7.42-5.34-15.85-8.97-23.8-13.4c-9.28-3.76-18.36-8.13-28.08-10.66
		c-18.22-5.99-37.27-8.96-56.33-10.59c-17.3401-0.77-34.8201-1.06-52.0801,1.1c-33.76,3.45-66.9199,14.14-95.7999,32.07
		c-17.85,11.39-34.61,24.8-48.23,41.08c4.92-39.03,22.84-76.66,51.3799-103.92c2.2201-2.79,4.89-5.14,7.75-7.25
		C1063.64,194.4,1079.37,185.17,1096.33,179.37z"/>
	<path fill="#FFFFFF" stroke="#FFFFFF" stroke-width="0.0938" d="M1204.62,270.2c18.92,3.74,37.65,9.13,54.85,18.02
		c23.5901,12.2,44.79,29.57,60.04,51.4c0.1,9.74-0.01,19.46-0.54,29.18c-1.87,3.57-5.0599,6.37-7.4299,9.64
		c-4.41,5.9-9.5,11.27-15.17,15.95c-4.55,4.88-10.15,8.55-15.37,12.63c-22.22,15.88-48.48,25.16-75.1899,30.03
		c4.45-3.15,9.84-4.72,14.0199-8.29c16.8401-11.35,29.39-28.63,35.78-47.84c4.91-16.29,5.29-33.96,1.03-50.42
		c-5.79-21.29-19.48-40.33-38.05-52.28C1214.3199,274.87,1209.04,273.27,1204.62,270.2z"/>
	<path fill="#FFFFFF" stroke="#FFFFFF" stroke-width="0.0938" d="M1107.51,274.63c6.79-1.34,13.49-3.28,20.37-4.18
		c2.3099,5.91,4.77,11.8,7.71,17.43c18.15-8.44,39.7101-8.51,58.3401-1.5c18.8899,7.77,34.58,23.36,41.96,42.46
		c6.7,19.13,5.6899,41.27-4.17,59.14c-9.76,17.01-26.08,30.49-45.14,35.62c-20.01,4.97-42.4099,3-60.01-8.29
		c-16.6499-10.43-29.73-27.35-33.3999-46.88c-2.4401-13.62-1.62-28,3.7-40.86c-6.08-2.6-12.61-3.87-18.78-6.19
		c-5.5599,15.48-7.23,32.34-4.2999,48.54c5.0599,29.27,25.7899,54.75,52.6,67.15c-43.8-7.11-85.3-30.48-111.97-66.23
		c-4.15-5.48-7.71-11.36-11.27-17.22c4.05-5.53,7.36-11.56,11.35-17.13c3.97-4.71,7.71-9.63,11.74-14.3
		c4.13-3.52,7.73-7.62,11.6801-11.35c12.88-10.78,27.0599-20.16,42.62-26.61C1089.1,279.92,1098.46,277.67,1107.51,274.63
		 M1143.96,303.31c8.6901,19.07,17.8201,37.97,26.86,56.9c-19.25-8.53-38.4099-17.26-57.59-25.94c-0.98,4.38-2.8099,8.6-2.87,13.14
		c-0.71,3.84-0.29,7.78-0.33,11.66c1.97,25.88,25.0699,48.14,50.95,49.41c6.3201,0.08,12.73,0.32,18.91-1.33
		c22.02-5.3,40.26-25.16,42.08-47.99c0.03-5.91,0.4301-11.93-1.08-17.72c-2.99-13.39-11.6901-25.08-22.84-32.88
		C1182.49,297.61,1161.38,296.03,1143.96,303.31z"/>
	<path fill="#FFFFFF" stroke="#FFFFFF" stroke-width="0.0938" d="M993.17,392.83c4.8,6.2,11.1,10.92,16.52,16.53
		c7.95,6.46,15.7499,13.17,24.48,18.58c38.01,25.66,84.36,37.15,129.88,37.06c41.5399,0.59,83.88-7.94,120.21-28.6
		c7.76-3.75,14.53-9.17,21.78-13.78c-7.1801,18.53-17.79,35.67-30.6001,50.83c-2.8999,4.03-6.5699,7.38-10.0499,10.88
		c-14.24,14.72-31.47,26.62-50.48,34.28c-19.88,8.11-41.4601,11.78-62.89,11.39c-23.3,0.19-46.77-4.27-68.01-13.99
		c-14.21-6.59-27.23-15.65-38.65-26.35C1018.4,463.9,999.82,429.51,993.17,392.83z"/>
	<path stroke="#000000" stroke-width="0.0938" d="M1113.58,63.63c17.87-1.92,35.9-2.19,53.8301-1.03
		c41.8199,3.31,83.0599,15.56,119.47,36.54c15.99,9.17,31.15,19.81,45.0699,31.9c8.0701,6.57,14.9601,14.42,22.4501,21.62
		c26.48,28.39,47.15,62.24,60.1699,98.8c7.4301,20.72,12.14,42.3,14.8201,64.12c0.36,3.99,0.35,8.05,1.03,12.01
		c0.08,9.65,1.37,19.39,0.1499,28.99c0.04,6.97-0.5299,13.91-1.2,20.85c-0.3,1.71-0.47,3.45-0.74,5.17
		c-5.09,42.36-20.24,83.45-43.55,119.17C1343.17,566.82,1273.8,613.84,1197.42,627.16c-8.49,1.8701-17.1801,2.77-25.8301,3.46
		c-5.63,0.76-11.3199,0.91-17,0.95c-8.9399,1.26-18.01-0.16-27-0.15c-6.65-0.69-13.35-1.26-20-2.07
		c-1.39-0.25-2.7999-0.38-4.1599-0.49c-21.66-3.56-43.0701-8.97-63.41-17.27c-8.9,16.69-18.18,33.17-27.04,49.89
		c7.63,4.44,14.9,9.46,22.5,13.97c-20.36,33.09-41.42,65.77-62.07,98.69c-25.77,40.91-51.66,81.74-77.3799,122.69
		c-21.25-13.55-42.73-26.73-63.85-40.46c46.79-73.49,92.93-147.4,139.66-220.93c6.53,3.93,12.98,8.04,19.34,12.25
		c9.02-15.31,17.04-31.27,25.84-46.74c-20.99-10.25-40.39-23.63-58-38.94c-7.53-6.14-13.94-13.48-20.94-20.18
		c-40.51-42.86-67.3-98.68-74.7-157.23c-1.06-5.01-1.15-10.14-1.77-15.19c-0.99-11.11-0.49-22.27-0.63-33.41
		c0-1.87-0.12-3.78,0.44-5.59c2.87-57.75,24.5-114.3,60.37-159.6c45.22-57.9,113.6-97.41,186.6201-106.44
		C1110.12,64.08,1111.85,63.92,1113.58,63.63 M1124.38,113.2c-52.37,4.83-103.08,27.64-140.82,64.34
		c-4.4,3.28-7.48,7.87-11.42,11.61c-29.67,32.54-49.84,73.62-57.36,117.02c-3.02,16.42-3.65,33.14-3.3,49.79
		c1.22,34.53,10.34,68.72,26.19,99.4c11.9,22.37,27.16,43.02,45.48,60.54c34.73,33.62,80.1799,56.05,128.0399,62.95
		c38.4901,5.92,78.4601,1.84,115.03-11.55c35.3301-12.88,67.5901-34.31,92.88-62.15c24.6901-27,43.01-59.85,52.75-95.13
		c13.53-48.04,11.12-100.42-6.84-147c-13.0701-34.16-34.16-65.27-61.34-89.78c-29.12-26.54-65.0601-45.56-103.4301-54.56
		C1175.49,112.58,1149.74,111.29,1124.38,113.2z"/>
	<path stroke="#000000" stroke-width="0.0938" d="M1134.98,244.13c17.26-2.16,34.74-1.87,52.0801-1.1
		c19.0599,1.63,38.11,4.6,56.33,10.59c9.72,2.53,18.7999,6.9,28.08,10.66c7.9501,4.43,16.38,8.06,23.8,13.4
		c5.04,3.52,10.49,6.46,15.14,10.53c23.2,17.51,42.23,40.23,56.2899,65.62c-9.8099,17.16-21.36,33.45-35.5499,47.28
		c-7.6,8.03-16.51,14.63-25.11,21.51c-7.25,4.61-14.02,10.03-21.78,13.78c-36.33,20.66-78.67,29.19-120.21,28.6
		c-45.52,0.09-91.87-11.4-129.88-37.06c-8.7301-5.41-16.53-12.12-24.48-18.58c-5.42-5.61-11.72-10.33-16.52-16.53
		c-10.9-11.88-19.84-25.35-28.01-39.2c3.94-5.65,7.07-11.84,11.09-17.45c4.76-6.41,9.23-13.06,14.7-18.9
		c13.62-16.28,30.38-29.69,48.23-41.08C1068.0601,258.27,1101.22,247.58,1134.98,244.13 M1204.62,270.2
		c4.42,3.07,9.7,4.67,13.97,8.02c18.5701,11.95,32.26,30.99,38.05,52.28c4.26,16.46,3.88,34.13-1.03,50.42
		c-6.39,19.21-18.9399,36.49-35.78,47.84c-4.1799,3.57-9.5699,5.14-14.0199,8.29c26.71-4.87,52.97-14.15,75.1899-30.03
		c5.22-4.08,10.8199-7.75,15.37-12.63c5.67-4.68,10.76-10.05,15.17-15.95c2.37-3.27,5.5599-6.07,7.4299-9.64
		c3.47-4.85,6.4601-10.03,9.75-15.01c-2.96-4.79-5.6799-9.77-9.21-14.17c-15.25-21.83-36.45-39.2-60.04-51.4
		C1242.27,279.33,1223.54,273.94,1204.62,270.2 M1107.51,274.63c-9.05,3.04-18.41,5.29-26.97,9.6
		c-15.5601,6.45-29.74,15.83-42.62,26.61c-3.9501,3.73-7.55,7.83-11.6801,11.35c-4.03,4.67-7.77,9.59-11.74,14.3
		c-3.99,5.57-7.3,11.6-11.35,17.13c3.56,5.86,7.12,11.74,11.27,17.22c26.67,35.75,68.17,59.12,111.97,66.23
		c-26.8101-12.4-47.54-37.88-52.6-67.15c-2.9301-16.2-1.26-33.06,4.2999-48.54c6.17,2.32,12.7001,3.59,18.78,6.19
		c-5.3199,12.86-6.14,27.24-3.7,40.86c3.6699,19.53,16.75,36.45,33.3999,46.88c17.6001,11.29,40,13.26,60.01,8.29
		c19.0601-5.13,35.38-18.61,45.14-35.62c9.86-17.87,10.87-40.01,4.17-59.14c-7.38-19.1-23.0701-34.69-41.96-42.46
		c-18.63-7.01-40.1901-6.94-58.3401,1.5c-2.9399-5.63-5.4-11.52-7.71-17.43C1121,271.35,1114.3,273.29,1107.51,274.63z"/>
	<path stroke="#000000" stroke-width="0.0938" d="M1143.96,303.31c17.42-7.28,38.53-5.7,54.0901,5.25
		c11.1499,7.8,19.85,19.49,22.84,32.88c1.51,5.79,1.11,11.81,1.08,17.72c-1.8199,22.83-20.0599,42.69-42.08,47.99
		c-6.1801,1.65-12.59,1.41-18.91,1.33c-25.88-1.27-48.98-23.53-50.95-49.41c0.0399-3.88-0.38-7.82,0.33-11.66
		c0.0601-4.54,1.89-8.76,2.87-13.14c19.1801,8.68,38.34,17.41,57.59,25.94C1161.78,341.28,1152.65,322.38,1143.96,303.31z"/>
	<path fill="#00B0F0" stroke="#00B0F0" stroke-width="0.0938" d="M197.84,112.49c25.74-6.08,52.92-6.23,78.68-0.16
		c24.03,5.58,46.27,17.14,66.06,31.68c-0.18-10.5-0.04-21-0.08-31.5c19.17-0.01,38.33-0.01,57.5,0c0,47.49,0,94.99,0,142.49
		c-19.17,0-38.33,0-57.5,0c-0.07-10.85,0.12-21.7-0.07-32.54c-2.11-3.76-5.13-6.93-7.56-10.49c-2.88-4.33-7.12-7.47-10.28-11.56
		c-12.53-12.02-27.58-21.71-44.34-26.59c-15.44-5.17-31.95-5.87-48.09-5.16c-16.17,1.32-32.82,5.45-45.73,15.72
		c-10.99,8.65-19.69,20.84-21.93,34.86c-1.72,12.99,0.09,26.85,7.11,38.11c3.18,5.61,7.62,10.38,12.29,14.79
		c9.11,7.93,20.55,12.41,31.98,15.88c40.99,12.61,83.38,20.82,123.29,36.84c12.35,4.81,24.44,10.77,34.61,19.39
		c12.39,10.07,22.29,22.86,30.5,36.47c10.7,17.95,16.72,38.5,18.35,59.29c1.74,24.4-1.01,49.66-11.6,71.96
		c-6.28,13.52-14.86,26.05-25.65,36.37c-18.08,19.0099-41.81,32.3199-67.16,38.84c-23.37,5.75-47.92,6.36-71.64,2.42
		c-24.5-4.42-47.83-14.65-67.92-29.33c-6.55-4.16-11.9-9.87-18.24-14.3c0.18,12.84,0.03,25.6801,0.07,38.52
		c-19.66,0.01-39.32,0.01-58.98,0c-0.01-56.83-0.01-113.66-0.01-170.49c19.67,0.01,39.34-0.03,59.01,0.02
		c-0.04,12.66,0.03,25.33-0.04,37.99c0,1.59-0.05,3.27,0.86,4.68c10.4,18.73,23.37,36.3,39.86,50.13
		c19.54,16.53,45.12,26.15,70.81,25.18c25.99,0.75,52.21-11.12,67.9-32.02c7.62-10.13,12.07-22.5,13.31-35.07
		c1.01-14.15,0.42-29.05-6.18-41.93c-3.02-6.23-7.62-11.68-13.23-15.72c-9.44-6.96-20.33-11.54-31.21-15.73
		c-25.74-9.86-52.81-15.49-79.02-23.86c-16.98-5.17-33.78-11.01-50.04-18.16c-19.34-8.92-37.58-21.5-49.97-39.1
		c-13.56-16.78-20.79-38.08-22.65-59.43c-2.12-27.87,1.9-57.16,16.72-81.31c6.41-11.14,15.29-20.62,24.91-29.05
		C158.3,126.87,177.6,117.52,197.84,112.49z"/>
	<path fill="#00B0F0" stroke="#00B0F0" stroke-width="0.0938" d="M1124.38,113.2c25.36-1.91,51.11-0.62,75.86,5.48
		c38.37,9,74.3101,28.02,103.4301,54.56c27.1799,24.51,48.2699,55.62,61.34,89.78c17.96,46.58,20.37,98.96,6.84,147
		c-9.74,35.28-28.0599,68.13-52.75,95.13c-25.2899,27.84-57.5499,49.27-92.88,62.15c-36.5699,13.39-76.5399,17.47-115.03,11.55
		c-47.86-6.9-93.3099-29.33-128.0399-62.95c-18.32-17.52-33.58-38.17-45.48-60.54c-15.85-30.68-24.97-64.87-26.19-99.4
		c-0.35-16.65,0.28-33.37,3.3-49.79c7.52-43.4,27.6899-84.48,57.36-117.02c3.94-3.74,7.02-8.33,11.42-11.61
		C1021.3,140.84,1072.01,118.03,1124.38,113.2 M1096.33,179.37c-16.96,5.8-32.6899,15.03-46.25,26.74
		c-2.86,2.11-5.5299,4.46-7.75,7.25c-28.54,27.26-46.46,64.89-51.3799,103.92c-5.47,5.84-9.94,12.49-14.7,18.9
		c-4.02,5.61-7.15,11.8-11.09,17.45c8.17,13.85,17.11,27.32,28.01,39.2c6.65,36.68,25.23,71.07,52.19,96.83
		c11.42,10.7,24.4401,19.76,38.65,26.35c21.24,9.72,44.71,14.18,68.01,13.99c21.4299,0.39,43.01-3.28,62.89-11.39
		c19.01-7.66,36.24-19.56,50.48-34.28c3.48-3.5,7.15-6.85,10.0499-10.88c12.8101-15.16,23.42-32.3,30.6001-50.83
		c8.6-6.88,17.51-13.48,25.11-21.51c14.1899-13.83,25.74-30.12,35.5499-47.28c-14.0599-25.39-33.09-48.11-56.2899-65.62
		c-1.86-7.91-5.5801-15.18-8.75-22.61c-9.05-18.34-21.0701-35.27-35.8101-49.47c-26.2-26.71-62.5599-42.97-99.87-45.18
		C1142.53,169.25,1118.59,171.54,1096.33,179.37z"/>
	<path fill="#00B0F0" stroke="#00B0F0" stroke-width="0.0938" d="M463,115c130.17,0,260.33,0,390.5,0c0,47,0,94-0.01,141
		c-19.33,0-38.66,0-57.98,0c-0.01-27.33-0.02-54.65,0-81.98c-66.83-0.05-133.67-0.01-200.51-0.02c0,46.33,0,92.67,0,139
		c58.17,0,116.33,0,174.49,0c0.01,19.67,0.01,39.33,0,59c-58.16,0-116.32-0.01-174.49,0c0.01,51.17-0.03,102.34,0.02,153.51
		c66.83-0.03,133.65,0.01,200.48-0.01c0.01-28.5-0.01-57,0.01-85.5c19.32,0,38.65,0,57.98,0c0.01,48.17,0.01,96.33,0,144.49
		c-130.16,0.01-260.32,0.01-390.49,0c0-19.66,0-39.32,0-58.99c20.32,0.01,40.65-0.02,60.97,0.02
		c0.07-117.17,0.01-234.35,0.03-351.52c-20.33-0.01-40.67,0.01-61,0C463,154.33,463,134.67,463,115z"/>
	<path fill="#00B0F0" stroke="#00B0F0" stroke-width="0.0938" d="M1319.51,339.62c3.53,4.4,6.25,9.38,9.21,14.17
		c-3.2899,4.98-6.28,10.16-9.75,15.01C1319.5,359.08,1319.61,349.36,1319.51,339.62z"/>
	<path fill="#00B0F0" stroke="#00B0F0" stroke-width="0.0938" d="M790.32,949.52c3.35-0.09,5.86,4.03,4.07,6.95
		c-1.31,2.9301-5.73,3.29-7.42,0.52C784.67,954.24,786.87,949.78,790.32,949.52z"/>
	<path fill="#00B0F0" stroke="#00B0F0" stroke-width="0.0938" d="M1066.34,949.52c3.41-0.06,5.88,4.16,3.98,7.08
		c-1.38,2.82-5.6599,3.11-7.33,0.41C1060.66,954.26,1062.86,949.76,1066.34,949.52z"/>
	<path fill="#00B0F0" stroke="#00B0F0" stroke-width="0.0938" d="M1160.33,949.52c3.9601-0.11,6.1901,5.27,3.3101,8.01
		c-2.14,2.55-6.4,1.3-7.3-1.7401C1155.13,953.04,1157.45,949.77,1160.33,949.52z"/>
	<path fill="#00B0F0" stroke="#00B0F0" stroke-width="0.0938" d="M367.83,953.75c6.69-5.87,17.92-5.63,24,1.07
		c0.24-1.46,0.5-2.9,0.76-4.33c2.26,0,4.52,0,6.78,0.03c-1.13,5.16-2.31,10.32-3.46,15.49c-2.26-0.02-4.51-0.03-6.75-0.04
		c0.27-1.52,0.85-3.04,0.71-4.59c-3.72-4.84-11.38-6.67-16.52-3.09c-3.68,2.42-3.79,8.19-0.86,11.25
		c4.51,4.97,11.26,7.25,15.59,12.41c5.09,6.13,4.34,16.22-1.8,21.37c-6.94,5.89-18.15,6.3-25.23,0.4
		c-0.22,1.09-0.44,2.19-0.66,3.3101c-2.26-0.03-4.51-0.05-6.76-0.05c1.11-5.17,2.32-10.32,3.46-15.49c2.26,0,4.52,0,6.78,0.02
		c-0.37,1.6-0.76,3.2-1.14,4.82c4.56,5.34,13.86,6.69,19.06,1.59c3.3-2.92,2.89-8.59-0.33-11.42c-4.69-4.38-10.94-6.91-15.05-11.94
		C361.55,968.62,361.92,958.84,367.83,953.75z"/>
	<path fill="#00B0F0" stroke="#00B0F0" stroke-width="0.0938" d="M938.34,950.54c8.27-1.92,17.97-1.36,24.68,4.38
		c6.58,5.55,8.53,14.98,6.89,23.15c-2.25,13.07-11.74,25.38-24.89,28.76c-7.46,1.83-15.91,1.69-22.64-2.35
		c-7.87-5.18-11.18-15.51-9.37-24.53C914.87,966.39,924.78,953.79,938.34,950.54 M940.25,957.28c-11.6,3.67-18.68,15.9-18.78,27.67
		c-0.28,5.32,2.15,10.85,6.57,13.92c4.9,2.91,11.22,2.72,16.46,0.82c9.5-3.96,15.18-13.93,16.79-23.74c1-5.81-0.4-12.29-5.06-16.2
		C951.9,955.99,945.53,955.82,940.25,957.28z"/>
	<path fill="#00B0F0" stroke="#00B0F0" stroke-width="0.0938" d="M1283.29,950.22c3.13-2.2599,7.5399,1.45,6.5599,4.9301
		c-0.4199,3.03-4.41,5.05-6.86,2.89C1280.28,956.19,1280.48,951.86,1283.29,950.22z"/>
	<path fill="#00B0F0" stroke="#00B0F0" stroke-width="0.0938" d="M571.87,950.51c4.21-0.02,8.42-0.01,12.64-0.03
		c-1.66,7.14-3.41,14.25-5.16,21.37c4.22-2.59,8.76-5.49,13.91-5.29c5.5,0.2,9.13,6.17,8.07,11.29c-1.17,7.63-3.37,15.06-4.95,22.62
		c1.8,0,3.62,0.03,5.43,0.05c-0.49,2.16-1.01,4.32-1.53,6.49c-4.22-0.02-8.4301-0.01-12.64-0.02c1.87-8.53,4.09-16.99,5.93-25.52
		c0.32-2.1899,0.99-4.71-0.29-6.7c-1.2401-1.6-3.47-1.39-5.2401-1.16c-3.79,0.92-7.08,3.13-10.29,5.26
		c-1.54,7.22-3.4,14.38-4.86,21.62c1.97,0,3.93,0,5.91,0.03c-0.51,2.15-1.02,4.32-1.54,6.48c-5.89,0-11.77,0-17.65-0.01
		c0.49-2.18,1-4.36,1.53-6.52c1.5,0,3,0.01,4.52,0.04c3.36-14.52,6.75-29.02,10.19-43.51c-1.85-0.01-3.69-0.01-5.53,0
		C570.83,954.83,571.35,952.67,571.87,950.51z"/>
	<path fill="#00B0F0" stroke="#00B0F0" stroke-width="0.0938" d="M636.28,956.99c0.52-2.17,1.04-4.33,1.58-6.48
		c13.64-0.01,27.28-0.03,40.93,0.01c-1.28,5.65-2.48,11.32-3.78,16.97c-2.21,0-4.41,0-6.6,0.01c0.79-3.5,1.57-7,2.32-10.5
		c-6.97-0.01-13.94,0-20.9-0.01c-1.33,5.82-2.69,11.64-4.08,17.45c5.86,0.13,11.73,0.01,17.59,0.08
		c-0.47,2.15-0.94,4.32-1.4301,6.48c-5.9,0-11.79-0.01-17.68,0.01c-1.51,6.5-3.04,12.99-4.55,19.49c7.16-0.01,14.31,0.01,21.47-0.01
		c0.79-3.67,1.61-7.34,2.42-11c2.2,0,4.4,0,6.61,0.02c-1.31,5.83-2.61,11.66-3.87,17.49c-13.9-0.01-27.8,0.01-41.7-0.01
		c0.49-2.18,1-4.35,1.53-6.51c1.83,0,3.67,0,5.52,0.02c3.33-14.51,6.7401-29.01,10.15-43.5
		C639.96,956.99,638.12,956.98,636.28,956.99z"/>
	<path fill="#00B0F0" stroke="#00B0F0" stroke-width="0.0938" d="M1038.04,958.15c2.33-1.82,4.6699-3.62,7-5.45
		c-1.1901,4.91-2.3101,9.85-3.52,14.76c1.9399,0.02,3.9,0.06,5.86,0.11c-0.52,2.13-1.01,4.28-1.5,6.43
		c-1.97-0.01-3.9301,0-5.87,0.02c-1.7,7.34-3.51,14.66-5.15,22.02c-0.1,1.43-1.02,3.44,0.3101,4.57
		c2.7699,1.22,5.6499-0.41,8.1599-1.54c-0.5199,2.29-1.01,4.59-1.47,6.91c-3.5,1.68-7.9399,3.03-11.46,0.69
		c-3.25-2.12-3.42-6.46-2.74-9.89c1.48-7.64,3.4299-15.1801,5.1599-22.77c-1.58-0.03-3.1399-0.04-4.7-0.05
		c0.5-2.16,0.99-4.32,1.5-6.47c1.55-0.01,3.13,0,4.71,0.01C1035.45,964.38,1034.92,960.14,1038.04,958.15z"/>
	<path fill="#00B0F0" stroke="#00B0F0" stroke-width="0.0938" d="M1257.0601,958.13c2.3199-1.81,4.6499-3.6,6.97-5.42
		c-1.1801,4.91-2.3,9.85-3.51,14.7599c1.9299,0.01,3.89,0.03,5.85,0.0601c-0.51,2.15-0.99,4.31-1.49,6.47
		c-1.97-0.01-3.9301,0-5.87,0.02c-1.7,7.32-3.49,14.61-5.14,21.95c-0.12,1.45-1,3.42,0.26,4.63c2.79,1.23,5.6801-0.39,8.2-1.53
		c-0.5199,2.28-1.01,4.58-1.46,6.9c-3.5,1.69-7.95,3.04-11.47,0.7c-3.23-2.1-3.42-6.41-2.75-9.82
		c1.47-7.67,3.4399-15.23,5.1699-22.84c-1.58-0.03-3.1499-0.04-4.7-0.05c0.49-2.16,0.99-4.32,1.5-6.47c1.55-0.01,3.13,0,4.71,0.01
		C1254.4399,964.37,1253.92,960.12,1257.0601,958.13z"/>
	<path fill="#00B0F0" stroke="#00B0F0" stroke-width="0.0938" d="M693.37,971.97c4.15-2.7,8.71-5.62,13.86-5.4
		c3.7,0.14,6.79,2.98,7.79,6.46c1.01,2.9,0.11,5.98-0.4,8.9c-1.38,6.2-2.92,12.36-4.3,18.57c1.81-0.02,3.64,0.01,5.47,0.02
		c-0.54,2.14-1.06,4.3-1.56,6.47c-4.2,0.01-8.39,0.01-12.59,0c1.98-9.02,4.31-17.96,6.24-26.99c0.71-2.43,0.08-5.94-2.83-6.46
		c-4.49-0.48-8.54,2.07-12.16,4.39c-1.29,0.6-1.37,2.1-1.7,3.31c-1.37,6.43-3.06,12.79-4.27,19.26c1.95,0,3.89-0.01,5.86,0.01
		c-0.51,2.15-1.01,4.32-1.52,6.49c-5.89,0-11.77,0.01-17.65-0.01c0.49-2.17,1-4.34,1.53-6.49c1.52-0.03,3.06-0.06,4.6-0.07
		c1.81-8.85,4.09-17.6,6.01-26.42c-1.84-0.03-3.65-0.02-5.47-0.03c0.5099-2.17,1.03-4.33,1.5699-6.48c4.2-0.01,8.4,0.01,12.61-0.02
		C694.19,968.6,693.64,970.85,693.37,971.97z"/>
	<path fill="#00B0F0" stroke="#00B0F0" stroke-width="0.0938" d="M730.54,973.54c4.96-5.6,13.19-8.59,20.45-6.13
		c3.68,1.11,6.53,3.8701,8.78,6.89c0.48-2.28,1.01-4.54,1.55-6.79c4.22-0.02,8.44,0,12.67-0.04c-0.52,2.17-1.04,4.33-1.54,6.52
		c-1.86-0.01-3.71,0-5.54,0.02c-2.69,11.3-5.09,22.67-8.04,33.9c-1.71,6.64-5.29,13.44-11.98,16.1401
		c-8.94,3.5399-20.39,2.3899-27.32-4.71c1.27-1.82,2.5-3.66,3.7-5.52c3.12,2.61,6.45,5.34,10.62,5.95c4.42,0.7,9.49,0.27,12.8-3.09
		c3.89-3.96,5.16-9.62,6.5-14.82c-3.15,2.82-6.8,5.34-11.09,5.9c-6.81,1.18-14.11-2.61-16.83-9
		C721.48,990.28,724.25,980.05,730.54,973.54 M741.31,974.39c-6.37,2.7-10.44,9.8-9.82,16.66c0.05,4.21,2.88,8.41,7,9.61
		c4.25,1.01,9.05,0.1201,12.3-2.92c3.97-3.78,6.47-9.18,6.4-14.69c-0.1-4.22-3.1-8.28-7.26-9.25
		C747.08,973.21,744.02,973.3,741.31,974.39z"/>
	<path fill="#00B0F0" stroke="#00B0F0" stroke-width="0.0938" d="M813.37,971.96c4.17-2.69,8.74-5.63,13.92-5.39
		c5.47,0.23,9.08,6.19,8.05,11.28c-1.2401,7.64-3.4301,15.08-5.02,22.65c1.81-0.01,3.64,0,5.47,0.02c-0.54,2.15-1.07,4.31-1.57,6.48
		c-4.2-0.01-8.39,0-12.58-0.01c1.97-9,4.3-17.91,6.22-26.92c0.59-2.22,0.35-5.14-1.95-6.28c-3.94-1.13-7.8,1.04-11.1299,2.92
		c-1.2,0.85-3.01,1.43-3.23,3.11c-1.62,6.87-3.17,13.78-4.73,20.67c1.98,0,3.96,0,5.96,0.03c-0.52,2.14-1.01,4.31-1.52,6.48
		c-5.89,0-11.77,0-17.65-0.01c0.49-2.18,1-4.35,1.53-6.51c1.51-0.01,3.02-0.02,4.55-0.01c1.91-8.85,4.11-17.6299,6.06-26.46
		c-1.84-0.03-3.66-0.02-5.47-0.03c0.5099-2.17,1.03-4.33,1.56-6.47c4.21-0.02,8.41,0,12.62-0.03
		C814.19,968.6,813.64,970.84,813.37,971.96z"/>
	<path fill="#00B0F0" stroke="#00B0F0" stroke-width="0.0938" d="M410.81,970.82c6.79-5.4,17.67-6.03,24.1,0.27
		c4.69,4.5699,5.69,11.6,4.65,17.8199c-10.33,0.21-20.68,0.02-31.01,0.1c-0.57,4.6,0.61,10.19,5.34,12.18
		c5.28,2.53,11.21-0.46,14.26-4.99c2.62,1.12,5.23,2.26,7.82,3.46c-7.37,9.92-25.27,11.8701-32.6,0.96
		C397.19,990.76,401.83,977.29,410.81,970.82 M418.32,973.44c-4.06,1.71-6.63,5.57-8.29,9.5c7.51,0.12,15.02,0.04,22.52,0.04
		c-0.05-2.42,0.07-5.08-1.69-6.97C428.12,972.05,422.43,971.65,418.32,973.44z"/>
	<path fill="#00B0F0" stroke="#00B0F0" stroke-width="0.0938" d="M452.01,975.15c5.48-7.46,16.17-10.86,24.74-7.03
		c3.8,1.61,5.9,5.98,5.07,9.99c-1.13,7.51-2.97,14.9-4.4,22.37c1.81-0.01,3.64,0.01,5.46,0.02c-0.45,2.16-0.93,4.31-1.39,6.48
		c-4.12,0.03-8.25,0.04-12.36-0.02c0.39-1.76,0.79-3.52,1.21-5.25c-2.7,2.5099-5.66,5.0099-9.38,5.79
		c-5.88,1.74-13.08-1.57-14.88-7.58c-1.81-5.36,0.87-11.36,5.51-14.31c6.47-4.39,15.11-3.66,21.75-0.02
		c0.54-3.73,3.48-8.92-0.33-11.78c-5.13-3.16-11.86-0.69-15.17,3.99C455.9,976.91,453.95,976.02,452.01,975.15 M456.86,989.82
		c-4.04,1.94-5.6,8.34-1.56,11.07c4.28,2.6,9.67,0.53,13.35-2.24c2.87-1.48,2.8-4.9901,3.61-7.69
		C467.57,988.65,461.72,987.23,456.86,989.82z"/>
	<path fill="#00B0F0" stroke="#00B0F0" stroke-width="0.0938" d="M513.59,968.63c3.11-1.79,6.7599-1.99,10.25-2.24
		c-0.51,2.34-1.03,4.69-1.55,7.04c-4.84-0.25-9.99,0.8-13.48,4.41c-5.98,5.96-7.02,14.8-8.9,22.6299c2.15,0,4.3,0.04,6.46,0.14
		c-0.54,2.11-1.07,4.25-1.59,6.38c-6.39,0.02-12.78,0.01-19.17,0c0.5-2.19,1.01-4.37,1.53-6.55c1.79,0.04,3.58,0.08,5.38,0.16
		c2.2-8.83,4.12-17.72,6.15-26.59c-1.99-0.02-3.97-0.02-5.94-0.02c0.51-2.16,1.04-4.3,1.56-6.44c4.19-0.08,8.39-0.06,12.59-0.04
		c-0.83,3.52-1.81,7.03-2.47,10.6C506.96,974.51,509.59,970.73,513.59,968.63z"/>
	<path fill="#00B0F0" stroke="#00B0F0" stroke-width="0.0938" d="M532.83,969.89c6.25-4.56,15.78-4.63,21.41,1.01
		c0.22-0.85,0.65-2.56,0.87-3.41c2.08,0,4.17,0,6.26,0.02c-0.97,4-1.98,8-2.98,12c-2.04-0.02-4.07-0.01-6.09-0.01
		c-1.14-6.09-8.56-8.84-13.75-5.97c-7.32,4.11-10.35,13.52-8.66,21.46c0.91,4.1,4.8,7.34,9.08,7.04
		c4.8101,0.36,8.5601-3.26,11.22-6.83c1.74,1.27,3.46,2.56,5.18,3.88c-5.89,8.4-18.6,11.93-27.27,5.77
		c-4.93-3.47-7.27-9.87-6.4-15.75C522.5,981.53,526.64,974.32,532.83,969.89z"/>
	<path fill="#00B0F0" stroke="#00B0F0" stroke-width="0.0938" d="M853.47,971.48c6.3701-5.52,16.66-6.88,23.5601-1.57
		c5.7599,4.35,7.34,12.31,5.93,19.09c-10.31,0.02-20.63-0.05-30.94,0.04c-0.58,4.72,0.79,10.45,5.71,12.32
		c5.3,2.26,10.89-0.79,13.97-5.16c2.55,1.13,5.11,2.25,7.69,3.34c-7.16,10.2401-25.57,11.97-32.68,0.81
		C840.96,990.83,845.15,978.06,853.47,971.48 M860.95,973.87c-3.61,1.86-5.88,5.44-7.4,9.09c7.5,0.07,15.01,0.04,22.52,0.02
		c-0.13-2.25,0.13-4.75-1.44-6.58C871.82,971.85,865.29,971.48,860.95,973.87z"/>
	<path fill="#00B0F0" stroke="#00B0F0" stroke-width="0.0938" d="M989.9,972.51c4.04-3.7,9.36-6.48,14.98-5.92
		c5.42,0.5,10.38,4.02,12.66,8.97c6.13,12.88-2.98,30.47-17.32,32.2c-6.56,1.16-13.1299-1.98-17.05-7.19
		c-1.34,5.98-2.67,11.96-3.95,17.96c1.94-0.04,3.91-0.05,5.8701-0.0601c-0.41,2.15-0.89,4.3-1.4,6.4501
		c-5.9,0.1599-11.8,0.0399-17.7,0.08c0.5-2.19,1.02-4.37,1.56-6.53c1.46,0.01,2.92,0.04,4.39,0.08
		c3.64-14.82,6.89-29.72,10.45-44.55c-1.85-0.01-3.68-0.01-5.51,0c0.51-2.11,0.96-4.24,1.38-6.37c4.25-0.25,8.51-0.1,12.76-0.13
		C990.65,969.16,990.26,970.82,989.9,972.51 M996.22,974.27c-7.5099,3.19-11.75,12.31-9.85,20.17c1.29,4.52,6.19,7.12,10.72,6.58
		c10.6299-0.15,17.37-13.23,13.31-22.48C1007.91,973.4,1001.11,972.46,996.22,974.27z"/>
	<path fill="#00B0F0" stroke="#00B0F0" stroke-width="0.0938" d="M1089.79,972.35c4.2-2.91,8.85-5.71,14.12-5.83
		c4.0599,0.12,7.23,3.23,8.62,6.87c4.3099-3.62,9.52-7.06,15.38-6.81c5.5499,0.3,9.02,6.43,7.88,11.55
		c-1.24,7.54-3.4401,14.87-4.9301,22.36c1.79,0,3.59,0,5.41,0.03c-0.51,2.14-1,4.3-1.49,6.47c-4.23,0.01-8.4501,0.03-12.66-0.03
		c1.95-8.68,4.12-17.31,6.03-26c0.4299-2.4901,0.98-6.47-2.16-7.34c-5.24-0.84-9.72,2.72-13.75,5.52
		c-1.49,7.16-3.33,14.23-4.9299,21.36c1.7999-0.02,3.6499,0,5.48,0.02c-0.52,2.15-1.03,4.31-1.54,6.48c-4.21-0.01-8.41,0-12.61-0.01
		c1.95-9.01,4.29-17.93,6.1899-26.95c0.65-2.48,0.05-5.78-2.7899-6.46c-5.23-0.54-9.7001,2.92-13.88,5.56
		c-1.5901,7.13-3.26,14.24-4.8401,21.38c1.9301-0.03,3.89-0.04,5.8501-0.06c-0.4301,2.18-0.91,4.35-1.41,6.52
		c-5.89,0.02-11.78,0.03-17.66,0c0.49-2.16,1-4.31,1.52-6.45c1.4301-0.2401,3.23,0.3799,4.53-0.3701
		c2.14-8.68,4.0499-17.43,6.0599-26.15c-1.83-0.02-3.64-0.03-5.45-0.02c0.49-2.15,0.98-4.29,1.45-6.43
		c4.2101-0.1,8.42-0.06,12.64-0.06C1090.48,969.11,1090.13,970.72,1089.79,972.35z"/>
	<path fill="#00B0F0" stroke="#00B0F0" stroke-width="0.0938" d="M1208.61,975.1c5.35-7.39,15.87-10.69,24.36-7.11
		c3.85,1.54,6.17,5.87,5.38,9.95c-1.14,7.57-2.98,15.02-4.4399,22.53c1.8099,0.01,3.65,0.03,5.49,0.05
		c-0.49,2.14-0.9501,4.31-1.4301,6.48c-4.11,0-8.21,0-12.3099-0.01c0.36-1.76,0.75-3.51,1.14-5.26
		c-2.9701,2.91-6.52,5.53-10.76,6.05c-6.14,1.14-13.11-3.2-13.8401-9.6c-1.23-6.67,4-12.83,10.15-14.63
		c5.8301-2.07,12.16-0.69,17.54,2.02c0.5-3.8,3.52-9.13-0.5701-11.87c-5.1699-3-11.71-0.48-15.0399,4.11
		C1212.36,976.93,1210.47,976.03,1208.61,975.1 M1211.88,990.94c-3.35,2.51-3.37,8.57,0.6801,10.41
		c5.1699,2.1,10.7899-0.79,14.5399-4.36c0.84-1.93,1.11-4.05,1.66-6.05C1223.63,988.44,1216.61,986.82,1211.88,990.94z"/>
	<path fill="#00B0F0" stroke="#00B0F0" stroke-width="0.0938" d="M1309.38,967.65c5.4301-1.66,11.64-1.6,16.67,1.2599
		c5.63,3.47,8.1399,10.6,7.24,16.98c-0.8101,6.09-3.24,12.29-8.05,16.33c-8.23,7.25-23.3,8.4301-30.05-1.37
		C1288.0699,988.62,1296.13,971.53,1309.38,967.65 M1309.41,974.53c-7.73,3.8-10.89,14.0699-7.86,21.89
		c2.13,4.89,8.36,5.22,12.88,4.15c6.99-2.02,11.12-9.63,11.1-16.58c0.1599-2.85-0.5801-5.88-2.76-7.82
		C1319.26,972.81,1313.6801,972.86,1309.41,974.53z"/>
	<path fill="#00B0F0" stroke="#00B0F0" stroke-width="0.0938" d="M1355.37,971.97c4.33-2.79,9.1801-5.96,14.58-5.3
		c5.1801,0.57,8.3401,6.35,7.38,11.19c-1.23,7.63-3.4199,15.07-5.01,22.64c1.79-0.02,3.64,0,5.4701,0.02
		c-0.55,2.15-1.0701,4.3-1.5601,6.47c-4.2,0.01-8.4,0.01-12.59,0c1.98-9.03,4.3099-17.98,6.24-27.01c0.5699-2.23,0.27-5.09-2-6.22
		c-4.73-1.14-9.16,1.74-12.97,4.16c-1.3,0.59-1.4,2.06-1.7101,3.26c-1.37,6.45-3.0699,12.83-4.2799,19.32
		c1.9399,0,3.88-0.01,5.86,0.01c-0.52,2.15-1.01,4.32-1.52,6.49c-5.89,0-11.77,0-17.65-0.01c0.49-2.18,1-4.35,1.53-6.51
		c1.49-0.01,3-0.01,4.53,0.01c1.9399-8.85,4.13-17.64,6.08-26.49c-1.84-0.01-3.66-0.01-5.47,0c0.5-2.18,1.03-4.34,1.5699-6.5
		c4.2001-0.01,8.4,0.01,12.61-0.02C1356.1899,968.6,1355.64,970.84,1355.37,971.97z"/>
	<path fill="#00B0F0" stroke="#00B0F0" stroke-width="0.0938" d="M777.28,973.99c0.5099-2.17,1.03-4.33,1.5699-6.48
		c4.2-0.02,8.4,0,12.61-0.03c-2.4901,11.01-5.2,21.98-7.59,33.01c1.79,0,3.59,0,5.4,0.03c-0.51,2.14-0.99,4.31-1.49,6.46
		c-5.73,0.03-11.45,0.02-17.17,0.01c0.49-2.18,1-4.34,1.53-6.5c1.52-0.02,3.04-0.04,4.58-0.04c1.85-8.85,4.1-17.61,6.03-26.44
		C780.92,973.99,779.09,973.99,777.28,973.99z"/>
	<path fill="#00B0F0" stroke="#00B0F0" stroke-width="0.0938" d="M1053.28,974c0.5-2.18,1.03-4.34,1.5699-6.49
		c4.2001-0.02,8.4,0,12.61-0.03c-2.47,11.02-5.24,21.97-7.5599,33.01c1.78,0,3.5599,0,5.37,0.02c-0.5,2.15-1,4.31-1.49,6.48
		c-5.73,0.02-11.4501,0.01-17.17,0c0.49-2.18,1-4.35,1.53-6.52c1.49,0,3,0.01,4.53,0.03c1.9399-8.85,4.12-17.65,6.08-26.5
		C1056.91,973.99,1055.09,973.99,1053.28,974z"/>
	<path fill="#00B0F0" stroke="#00B0F0" stroke-width="0.0938" d="M1147.28,973.99c0.5-2.17,1.03-4.33,1.5699-6.48
		c4.1901-0.02,8.4,0,12.61-0.03c-2.47,11.02-5.24,21.97-7.5599,33.02c1.78-0.01,3.5599-0.01,5.37,0.01
		c-0.51,2.15-0.99,4.32-1.49,6.48c-5.73,0.02-11.4601,0.01-17.17,0c0.48-2.19,1-4.35,1.53-6.52c1.5,0,3,0,4.53,0.03
		c1.9399-8.85,4.12-17.65,6.08-26.49C1150.9,973.98,1149.09,973.99,1147.28,973.99z"/>
	<path fill="#00B0F0" stroke="#00B0F0" stroke-width="0.0938" d="M1169.46,981.53c1.05-4.6801,2.15-9.35,3.26-14.02
		c9.38-0.02,18.76-0.02,28.15,0c-0.8,2.56-0.51,5.74-2.51,7.78c-8.53,8.64-17.26,17.09-25.84,25.7c5,0,10,0.05,15.01-0.05
		c0.6-2.83,1.26-5.65,1.98-8.45c2-0.01,4-0.01,6.02,0c-1.11,4.84-2.25,9.67-3.4,14.51c-9.83-0.01-19.66,0.01-29.48-0.01
		c0.77-2.56,0.5499-5.7,2.58-7.67c8.61-8.63,17.3201-17.16,25.9-25.83c-4.59,0.01-9.17-0.03-13.75,0.05
		c-0.58,2.62-1.1801,5.23-1.74,7.87C1173.5699,981.47,1171.5,981.5,1169.46,981.53z"/>
	<path fill="#00B0F0" stroke="#00B0F0" stroke-width="0.0938" d="M1273.85,967.51c4.2001-0.02,8.4,0,12.61-0.03
		c-2.47,11.02-5.25,21.96-7.5599,33.02c1.78-0.01,3.5599-0.01,5.37,0.01c-0.51,2.15-1,4.32-1.5,6.48
		c-5.72,0.02-11.4501,0.01-17.16,0c0.49-2.18,1-4.35,1.53-6.51c1.49-0.01,3-0.01,4.53,0.01c1.9299-8.85,4.13-17.64,6.08-26.49
		c-1.84-0.01-3.66-0.01-5.47,0C1272.78,971.82,1273.3101,969.66,1273.85,967.51z"/>
</g>
</svg>
